/* XPM */
static char * bb_xpm[] = {
"54 54 131 2",
"  	c None",
". 	c #FFFFFF",
"+ 	c #F5F5F5",
"@ 	c #EDEDED",
"# 	c #FCFCFC",
"$ 	c #A2A2A2",
"% 	c #5A5A5A",
"& 	c #E0E0E0",
"* 	c #F3F3F3",
"= 	c #A4A4A4",
"- 	c #4A4A4A",
"; 	c #161616",
"> 	c #757575",
", 	c #C8C8C8",
"' 	c #F0F0F0",
") 	c #C5C5C5",
"! 	c #2F2F2F",
"~ 	c #111111",
"{ 	c #1E1E1E",
"] 	c #060606",
"^ 	c #747474",
"/ 	c #E3E3E3",
"( 	c #FBFBFB",
"_ 	c #A7A7A7",
": 	c #282828",
"< 	c #0A0A0A",
"[ 	c #636363",
"} 	c #B1B1B1",
"| 	c #212121",
"1 	c #181818",
"2 	c #EAEAEA",
"3 	c #CBCBCB",
"4 	c #1C1C1C",
"5 	c #3B3B3B",
"6 	c #696969",
"7 	c #141414",
"8 	c #454545",
"9 	c #9D9D9D",
"0 	c #F2F2F2",
"a 	c #B8B8B8",
"b 	c #2C2C2C",
"c 	c #000000",
"d 	c #6C6C6C",
"e 	c #D8D8D8",
"f 	c #FAFAFA",
"g 	c #070707",
"h 	c #101010",
"i 	c #4E4E4E",
"j 	c #E8E8E8",
"k 	c #9E9E9E",
"l 	c #6F6F6F",
"m 	c #414141",
"n 	c #646464",
"o 	c #D7D7D7",
"p 	c #BFBFBF",
"q 	c #3E3E3E",
"r 	c #7A7A7A",
"s 	c #C0C0C0",
"t 	c #ECECEC",
"u 	c #6B6B6B",
"v 	c #050505",
"w 	c #0B0B0B",
"x 	c #131313",
"y 	c #B6B6B6",
"z 	c #A6A6A6",
"A 	c #616161",
"B 	c #252525",
"C 	c #333333",
"D 	c #9F9F9F",
"E 	c #E1E1E1",
"F 	c #BABABA",
"G 	c #4D4D4D",
"H 	c #323232",
"I 	c #878787",
"J 	c #D3D3D3",
"K 	c #CECECE",
"L 	c #010101",
"M 	c #A1A1A1",
"N 	c #FDFDFD",
"O 	c #020202",
"P 	c #707070",
"Q 	c #434343",
"R 	c #2E2E2E",
"S 	c #242424",
"T 	c #676767",
"U 	c #DDDDDD",
"V 	c #7D7D7D",
"W 	c #363636",
"X 	c #888888",
"Y 	c #F7F7F7",
"Z 	c #1F1F1F",
"` 	c #CDCDCD",
" .	c #030303",
"..	c #9A9A9A",
"+.	c #1D1D1D",
"@.	c #C4C4C4",
"#.	c #F9F9F9",
"$.	c #A8A8A8",
"%.	c #E2E2E2",
"&.	c #080808",
"*.	c #373737",
"=.	c #A0A0A0",
"-.	c #494949",
";.	c #202020",
">.	c #868686",
",.	c #DCDCDC",
"'.	c #2D2D2D",
").	c #EEEEEE",
"!.	c #9C9C9C",
"~.	c #424242",
"{.	c #C2C2C2",
"].	c #5B5B5B",
"^.	c #DBDBDB",
"/.	c #6A6A6A",
"(.	c #F1F1F1",
"_.	c #F6F6F6",
":.	c #E4E4E4",
"<.	c #404040",
"[.	c #5E5E5E",
"}.	c #B0B0B0",
"|.	c #909090",
"1.	c #7C7C7C",
"2.	c #191919",
"3.	c #787878",
"4.	c #474747",
"5.	c #F8F8F8",
"6.	c #999999",
"7.	c #737373",
"8.	c #8B8B8B",
"9.	c #565656",
"0.	c #FEFEFE",
". . . . . . . . . . . . . . . . . . . . . . . . . . . . . . . . . . . . . . . . . . . . . . . . . . . . . . ",
". . . . . . . . . . . . . . . . . . . . . . . . . . . . . . . . . . . . . . . . . . . . . . . . . . . . . . ",
". . . . . . . . . . . . . . . . . . . . . . . . . . . . . . . . . . . . . . . . . . . . . . . . . . . . . . ",
". . . . . . . . . . . . . . . . . . . . . . . . . . . . . . . . . . . . . . . . . . . . . . . . . . . . . . ",
". . . . . . . . . . . . . . . . . . . . . . . . . . . . . . . . . . . . . . . . . . . . . . . . . . . . . . ",
". . . . . . . . . . . . . . . . . . . . . . . . . . + @ # . . . . . . . . . . . . . . . . . . . . . . . . . ",
". . . . . . . . . . . . . . . . . . . . . . . . . . $ % & . . . . . . . . . . . . . . . . . . . . . . . . . ",
". . . . . . . . . . . . . . . . . . . . . . . . * = - ; > , . . . . . . . . . . . . . . . . . . . . . . . . ",
". . . . . . . . . . . . . . . . . . . . . . . ' ) ! ~ { ] ^ / ( . . . . . . . . . . . . . . . . . . . . . . ",
". . . . . . . . . . . . . . . . . . . . . . . _ : < [ } | 1 % 2 . . . . . . . . . . . . . . . . . . . . . . ",
". . . . . . . . . . . . . . . . . . . . . . . 3 > 4 5 6 7 8 9 0 . . . . . . . . . . . . . . . . . . . . . . ",
". . . . . . . . . . . . . . . . . . . . . . . 2 a b c c c d e f . . . . . . . . . . . . . . . . . . . . . . ",
". . . . . . . . . . . . . . . . . . . . . . . $ 4 g c c c h i j . . . . . . . . . . . . . . . . . . . . . . ",
". . . . . . . . . . . . . . . . . . . k l l l m c c c c c c 1 n l l l 3 . . . . . . . . . . . . . . . . . . ",
". . . . . . . . . . . . . . . . o p p q c c c c c c c c c c c c c c c r p s t . . . . . . . . . . . . . . . ",
". . . . . . . . . . . . . . . . u ~ ~ v c c c c c c c c c c c c c c c w ~ x y . . . . . . . . . . . . . . . ",
". . . . . . . . . . . . . z A A B c c c c c c c c c c c c c c c c c c c C D E . . . . . . . . . . . . . . . ",
". . . . . . . . . . . ' F G c c c c c c c c c c c c c c c c c c c c c H I . . E } } J . . . . . . . . . . . ",
". . . . . . . . . . . K | L c c c c c c c c c c c c c c c c c c c c c M N . . D O O P . . . . . . . . . . . ",
". . . . . . . . . . _ Q < c c c c c c c c c c c c c c c c c c c c R = E . N I C c c S T U . . . . . . . . . ",
". . . . . . . . . . V c c c c c c c c c c c c c c c c c c c c c W X Y . E M H c c c c Z ` . . . . . . . . . ",
". . . . . . . . . . V c c c c c c c c c c c c c c c c c c c  .w ... . Y = c c c c c c +.@.#.. . . . . . . . ",
". . . . . . . . . . V c c c c c c c c c c c c c c c c c c c : $.%.. . X R c c c c c c &.*.=.. . . . . . . . ",
". . . . . . . . ' _ -.c c c c c c c c c c c c c c c c c c c ;.>.J %...W c c c c c c c c c V . . . . . . . . ",
". . . . . . . . ,.'.c c c c c c c c c c c c c c c c c c c c c c >.$.w c c c c c c c c c c V . . . . . . . . ",
". . . . . . . . ,.'.c c c c c c c c c c c c c c c c c c c c c c ;.:  .c c c c c c c c c c V . . . . . . . . ",
". . . . . . . . ,.'.c c c c c c c c c c c c c c c c c c c c c c c c c c c c c c c c c c c V . . . . . . . . ",
". . . . . . . . ,.'.c c c c c c c c c c c c c c c c c c c c c c c c c c c c c c c c c c c V . . . . . . . . ",
". . . . . . . . ,.'.c c c c c c c c c c c c c c c c c c c c c c c c c c c c c c c c c c c V . . . . . . . . ",
". . . . . . . . ).!.~.c c c c c c c c c c c c c c c c c c c c c c c c c c c c c c c c h d {.. . . . . . . . ",
". . . . . . . . . . V c c c c c c c c c c c c c c c c c c c c c c c c c c c c c c c c Z ` . . . . . . . . . ",
". . . . . . . . . . V c c c c c c c c c c c c c c c c c c c c c c c c c c c c c c c c Z ` . . . . . . . . . ",
". . . . . . . . . . V c c c c c c c c c c c c c c c c c c c c c c c c c c c c c c c c Z ` . . . . . . . . . ",
". . . . . . . . . . =.*.&.c c c c c c c c c c c c c c c c c c c c c c c c c c c c c { ].^.. . . . . . . . . ",
". . . . . . . . . . #.@.+.c c c c c c c c c c c c c c c c c c c c c c c c c c c c c /.+ N . . . . . . . . . ",
". . . . . . . . . . . ` Z c c c c c c c c c c c c c c c c c c c c c c c c c c c c c l . . . . . . . . . . . ",
". . . . . . . . . . . U T S c c c c c c c c c c c c c c c c c c c c c c c c c c v q k . . . . . . . . . . . ",
". . . . . . . . . . . . . l c c c c c c c c c c c c c c c c c c c c c c c c c c ~ p . . . . . . . . . . . . ",
". . . . . . . . . . . . . l c c c c c c c c c c c c c c c c c c c c c c c c c c ~ p . . . . . . . . . . . . ",
". . . . . . . . . . . . . z A A A A A A A A A A A A A A A A A A A A A A A A A A u o . . . . . . . . . . . . ",
". . . . . . . . N (.).).).).).).).).).).).).).).).)._.# (.).).).).).).).).).).).).).).).).Y . . . . . . . . ",
". . . . . . . . :.A <.<.<.<.<.<.<.<.<.<.<.<.<.<.<.<...E [.<.<.<.<.<.<.<.<.<.<.<.<.<.<.<.<.k . . . . . . . . ",
". . # }.|.|.|.|.1.2.c c c c c c c c c c c c c c c c 3.o : c c c c c c c c c c c c c c c c 4.|.|.|.|.|.J . . ",
". . 5.-.c c c c c c c c c c c c c c c c c c c c c c 3.o : c c c c c c c c c c c c c c c c c c c c c c 6.. . ",
". . 5.-.c c c c c c c c c c c c c c c c c c c c c c 3.o : c c c c c c c c c c c c c c c c c c c c c c 6.. . ",
". . 5.-.c c c c c c c c c c c c c c c c c c c c c c 3.o : c c c c c c c c c c c c c c c c c c c c c c 6.. . ",
". . 5.-.c c c c c c c c c c c c c c c c c c c c c c 3.o : c c c c c c c c c c c c c c c c c c c c c c 6.. . ",
". . 5.-.c c c c c c c c c c c c c c c c c c c c c c 3.o : c c c c c c c c c c c c c c c c c c c c c c 6.. . ",
". . 5.-.c c c c x 7.8.8.8.8.8.8.8.8.8.8.8.8.8.8.8.8.{.@ k 8.8.8.8.8.8.8.8.8.8.8.8.8.8.8.8.4.c c c c c 6.. . ",
". . f 7.5 5 5 5 9.U . . . . . . . . . . . . . . . . . . . . . . . . . . . . . . . . . . . D 5 5 5 5 5 } . . ",
". . 0.' 2 2 2 2 @ ( . . . . . . . . . . . . . . . . . . . . . . . . . . . . . . . . . . . + 2 2 2 2 2 Y . . ",
". . . . . . . . . . . . . . . . . . . . . . . . . . . . . . . . . . . . . . . . . . . . . . . . . . . . . . ",
". . . . . . . . . . . . . . . . . . . . . . . . . . . . . . . . . . . . . . . . . . . . . . . . . . . . . . ",
". . . . . . . . . . . . . . . . . . . . . . . . . . . . . . . . . . . . . . . . . . . . . . . . . . . . . . "};
