/* XPM */
static char * bk_xpm[] = {
"54 54 145 2",
"  	c None",
". 	c #FFFFFF",
"+ 	c #FEFEFE",
"@ 	c #F9F9F9",
"# 	c #F8F8F8",
"$ 	c #FCFCFC",
"% 	c #ECECEC",
"& 	c #707070",
"* 	c #494949",
"= 	c #A9A9A9",
"- 	c #D5D5D5",
"; 	c #8A8A8A",
"> 	c #212121",
", 	c #000000",
"' 	c #515151",
") 	c #AFAFAF",
"! 	c #F5F5F5",
"~ 	c #EFEFEF",
"{ 	c #888888",
"] 	c #323232",
"^ 	c #D2D2D2",
"/ 	c #F6F6F6",
"( 	c #222222",
"_ 	c #0D0D0D",
": 	c #353535",
"< 	c #ADADAD",
"[ 	c #F3F3F3",
"} 	c #444444",
"| 	c #959595",
"1 	c #F2F2F2",
"2 	c #D1D1D1",
"3 	c #3B3B3B",
"4 	c #808080",
"5 	c #E5E5E5",
"6 	c #FDFDFD",
"7 	c #B3B3B3",
"8 	c #2B2B2B",
"9 	c #0C0C0C",
"0 	c #1A1A1A",
"a 	c #656565",
"b 	c #A3A3A3",
"c 	c #E0E0E0",
"d 	c #CDCDCD",
"e 	c #838383",
"f 	c #151515",
"g 	c #272727",
"h 	c #050505",
"i 	c #373737",
"j 	c #C4C4C4",
"k 	c #CECECE",
"l 	c #F0F0F0",
"m 	c #747474",
"n 	c #1F1F1F",
"o 	c #141414",
"p 	c #5D5D5D",
"q 	c #B1B1B1",
"r 	c #171717",
"s 	c #080808",
"t 	c #1D1D1D",
"u 	c #BABABA",
"v 	c #E3E3E3",
"w 	c #6F6F6F",
"x 	c #2A2A2A",
"y 	c #6A6A6A",
"z 	c #C9C9C9",
"A 	c #010101",
"B 	c #4D4D4D",
"C 	c #AEAEAE",
"D 	c #DFDFDF",
"E 	c #9A9A9A",
"F 	c #505050",
"G 	c #C6C6C6",
"H 	c #F1F1F1",
"I 	c #DDDDDD",
"J 	c #979797",
"K 	c #131313",
"L 	c #535353",
"M 	c #C7C7C7",
"N 	c #868686",
"O 	c #020202",
"P 	c #070707",
"Q 	c #292929",
"R 	c #CCCCCC",
"S 	c #818181",
"T 	c #2D2D2D",
"U 	c #E9E9E9",
"V 	c #7D7D7D",
"W 	c #303030",
"X 	c #787878",
"Y 	c #4E4E4E",
"Z 	c #DCDCDC",
"` 	c #989898",
" .	c #575757",
"..	c #BFBFBF",
"+.	c #F4F4F4",
"@.	c #8C8C8C",
"#.	c #2F2F2F",
"$.	c #7B7B7B",
"%.	c #0F0F0F",
"&.	c #474747",
"*.	c #DADADA",
"=.	c #262626",
"-.	c #595959",
";.	c #B8B8B8",
">.	c #F7F7F7",
",.	c #999999",
"'.	c #EAEAEA",
").	c #757575",
"!.	c #EEEEEE",
"~.	c #A5A5A5",
"{.	c #464646",
"].	c #D7D7D7",
"^.	c #282828",
"/.	c #5A5A5A",
"(.	c #111111",
"_.	c #4C4C4C",
":.	c #3D3D3D",
"<.	c #C3C3C3",
"[.	c #616161",
"}.	c #B7B7B7",
"|.	c #2E2E2E",
"1.	c #525252",
"2.	c #060606",
"3.	c #D9D9D9",
"4.	c #363636",
"5.	c #0B0B0B",
"6.	c #858585",
"7.	c #DBDBDB",
"8.	c #A4A4A4",
"9.	c #909090",
"0.	c #A6A6A6",
"a.	c #7E7E7E",
"b.	c #D3D3D3",
"c.	c #CFCFCF",
"d.	c #2C2C2C",
"e.	c #C5C5C5",
"f.	c #E7E7E7",
"g.	c #7F7F7F",
"h.	c #0A0A0A",
"i.	c #1C1C1C",
"j.	c #828282",
"k.	c #E4E4E4",
"l.	c #5E5E5E",
"m.	c #9B9B9B",
"n.	c #EDEDED",
". . . . . . . . . . . . . . . . . . . . . . . . . . . . . . . . . . . . . . . . . . . . . . . . . . . . . . ",
". . . . . . . . . . . . . . . . . . . . . . . . . . . . . . . . . . . . . . . . . . . . . . . . . . . . . . ",
". . . . . . . . . . . . . . . . . . . . . . . . + @ # # # $ . . . . . . . . . . . . . . . . . . . . . . . . ",
". . . . . . . . . . . . . . . . . . . . . . . . % & * * * = . . . . . . . . . . . . . . . . . . . . . . . . ",
". . . . . . . . . . . . . . . . . . . . . . . - ; > , , , ' ) ! . . . . . . . . . . . . . . . . . . . . . . ",
". . . . . . . . . . . . . . . . . . . . . + ~ { , , , , , , ] ^ / . . . . . . . . . . . . . . . . . . . . . ",
". . . . . . . . . . . . . . . . . . . . . / & ( , , , , , , _ : < . . . . . . . . . . . . . . . . . . . . . ",
". . . . . . . . . . . . . . . . . . . . . [ } , , , , , , , , , | . . . . . . . . . . . . . . . . . . . . . ",
". . . . . . . . . . . . . . . . . . . . 1 2 3 , , , , , , , , , 4 5 6 . . . . . . . . . . . . . . . . . . . ",
". . . . . . . . . . . . . . . . . . . . 7 8 9 , , , , , , , , , 0 a ! . . . . . . . . . . . . . . . . . . . ",
". . . . . . . . . . . . . . . . . . . . b , , , , , , , , , , , , } [ . . . . . . . . . . . . . . . . . . . ",
". . . . . . . . . . . . . . . . c d d d e , , f ] ] ] ] ] ] g h , i j d d k l . . . . . . . . . . . . . . . ",
". . . . . . . . . . . . . . . . m n n n o , , p c c c c c c q r , s t n n > u . . . . . . . . . . . . . . . ",
". . . . . . . . . . . v 4 w w w x , , , , , , y . . . . . . z 0 , , , , , A B w w w C . . . . . . . . . . . ",
". . . . . . . . . . D E r , , , , , , , , , , F G H . . . I J K , , , , , , , , , , L M [ . . . . . . . . . ",
". . . . . . . . . . N _ O , , , , , , , , , , P Q R . . . S _ O , , , , , , , , , , P T 2 . . . . . . . . . ",
". . . . . . . . U V W , , , , , , , , , , , , , 0 z . . . X , , , , , , , , , , , , , 9 Y C . . . . . . . . ",
". . . . . . . Z ` n , , , , , , , , , , , , , , 0 z . . . X , , , , , , , , , , , , , , ,  ...+.. . . . . . ",
". . . . . . . @.O , , , , , , , , , , , , , , , 0 z . . . X , , , , , , , , , , , , , , , A #.Z . . . . . . ",
". . . . . H $.T , , , , , , , , , , , , , , , , 0 z . . . X , , , , , , , , , , , , , , , , %.&.q . . . . . ",
". . . . *.| =., , , , , , , , , , , , , , , , , 0 z . . . X , , , , , , , , , , , , , , , , , , -.;.>.. . . ",
". . . . ,., , , , , , , , , , , , , , , , , , , 0 z . . . X , , , , , , , , , , , , , , , , , , , 3 '.. . . ",
". . . . ,., , , , , , , , , , , , , , , , , , , 0 z . . . X , , , , , , , , , , , , , , , , , , , 3 '.. . . ",
". . . . ,., , , , , , , , , , , , , , , , , , , %.).M !.~.{., , , , , , , , , , , , , , , , , , , 3 '.. . . ",
". . + % ; , , , , , , , , , , , , , , , , , , , , , X ].^., , , , , , , , , , , , , , , , , , , , : ^ ! . . ",
". . @ & > , , , , , , , , , , , , , , , , , , , , , X ].^., , , , , , , , , , , , , , , , , , , , _ ] ) . . ",
". . # * , , , , , , , , , , , , , , , , , , , , , , X ].^., , , , , , , , , , , , , , , , , , , , , , ,.. . ",
". . # * , , , , , , , , , , , , , , , , , , , , , , X ].^., , , , , , , , , , , , , , , , , , , , , , ,.. . ",
". . # * , , , , , , , , , , , , , , , , , , , , , , X ].^., , , , , , , , , , , , , , , , , , , , , , ,.. . ",
". . # * , , , , , , , , , , , , , , , , , , , , , , X ].^., , , , , , , , , , , , , , , , , , , , , , ,.. . ",
". . # * , , , , , , , , , , , , , , , , , , , , , , X ].^., , , , , , , , , , , , , , , , , , , , , , ,.. . ",
". . # * , , , , , , , , , , , , , , , , , , , , , , X ].^., , , , , , , , , , , , , , , , , , , , , , ,.. . ",
". . $ 7 /., , , , , , , , , , , , , , , , , , , , , ] /.(., , , , , , , , , , , , , , , , , , , , ( { - . . ",
". . . . ,., , , , , , , , , , , , , , , , , , , , , , , , , , , , , , , , , , , , , , , , , , , , 3 '.. . . ",
". . . . ,., , , , , , , , , , , , , , , , , , , , , , , , , , , , , , , , , , , , , , , , , , , , 3 '.. . . ",
". . . . ,., , , , , , , , , , , , , , , , , , , , , , , , , , , , , , , , , , , , , , , , , , , , 3 '.. . . ",
". . . . u _.K , , , , , , , , , , , , , , , , , , , , , , , , , , , , , , , , , , , , , , , , , T $.H . . . ",
". . . . . '.:.A , , , , , , , , , , , , , , , , , , , , , , , , , , , , , , , , , , , , , , , O @.. . . . . ",
". . . . . @ <.[., , , , , , , , , , , , , , , , , , , , , , , , , , , , , , , , , , , , , , n ` Z . . . . . ",
". . . . . . . }.[.[.[.Y 9 , , , , , , , , , , , , , |.1.%., , , , , , , , , , , , , x [.[.[.V U . . . . . . ",
". . . . . . . . . . . 2 T (.(.(.2., , , , , , , O _ S 3.4.s , , , , , , , , 5.(.(.(.X . . . . . . . . . . . ",
". . . . . . . . . . . [ M ......* , , , , , , , K J I ! z /., , , , , , , O 6.......7.. . . . . . . . . . . ",
". . . . . . . . l 8.9.0.1 . . . 0.w w w w w w w a.c . . . 7 w w w w w w w & b.. . . c.9.9.G . . . . . . . . ",
". . . . . . . . Z T , d.e.c c c [ . . . . . . 1 c c c c c c f.$ . . . . . . '.c c c g., , V . . . . . . . . ",
". . . . . . . . Z T , h.d.] ] ] q . . . . . . = ] ] ] ] ] ] p '.. . . . . 6 & ] ] ] i., , V . . . . . . . . ",
". . . . . . . . Z T , , , , , , ' j.j.j.j.j.j._., , , , , , i.).j.j.j.j.j.S ^., , , , , , V . . . . . . . . ",
". . . . . . . . Z T , , , , , , , , , , , , , , , , , , , , , , , , , , , , , , , , , , , V . . . . . . . . ",
". . . . . . . . Z T , , , , , , , , , , , , , , , , , , , , , , , , , , , , , , , , , , , V . . . . . . . . ",
". . . . . . . . Z T , , , , , , , , , , , , , , , , , , , , , , , , , , , , , , , , , , , V . . . . . . . . ",
". . . . . . . . k.l.3 3 3 3 3 3 3 3 3 3 3 3 3 3 3 3 3 3 3 3 3 3 3 3 3 3 3 3 3 3 3 3 3 3 3 m.. . . . . . . . ",
". . . . . . . . $ n.'.'.'.'.'.'.'.'.'.'.'.'.'.'.'.'.'.'.'.'.'.'.'.'.'.'.'.'.'.'.'.'.'.'.'.+.. . . . . . . . ",
". . . . . . . . . . . . . . . . . . . . . . . . . . . . . . . . . . . . . . . . . . . . . . . . . . . . . . ",
". . . . . . . . . . . . . . . . . . . . . . . . . . . . . . . . . . . . . . . . . . . . . . . . . . . . . . ",
". . . . . . . . . . . . . . . . . . . . . . . . . . . . . . . . . . . . . . . . . . . . . . . . . . . . . . "};
