/* XPM */
static char * bn_xpm[] = {
"54 54 115 2",
"  	c None",
". 	c #FFFFFF",
"+ 	c #FEFEFE",
"@ 	c #F9F9F9",
"# 	c #FCFCFC",
"$ 	c #E2E2E2",
"% 	c #666666",
"& 	c #A9A9A9",
"* 	c #D7D7D7",
"= 	c #282828",
"- 	c #515151",
"; 	c #AFAFAF",
"> 	c #F5F5F5",
", 	c #C5C5C5",
"' 	c #252525",
") 	c #000000",
"! 	c #323232",
"~ 	c #D2D2D2",
"{ 	c #F6F6F6",
"] 	c #A2A2A2",
"^ 	c #090909",
"/ 	c #0D0D0D",
"( 	c #353535",
"_ 	c #ADADAD",
": 	c #CFCFCF",
"< 	c #8B8B8B",
"[ 	c #4A4A4A",
"} 	c #AAAAAA",
"| 	c #FAFAFA",
"1 	c #F2F2F2",
"2 	c #DCDCDC",
"3 	c #808080",
"4 	c #3B3B3B",
"5 	c #D1D1D1",
"6 	c #B3B3B3",
"7 	c #2D2D2D",
"8 	c #1A1A1A",
"9 	c #0C0C0C",
"0 	c #2B2B2B",
"a 	c #A7A7A7",
"b 	c #505050",
"c 	c #F0F0F0",
"d 	c #CECECE",
"e 	c #434343",
"f 	c #BABABA",
"g 	c #212121",
"h 	c #0A0A0A",
"i 	c #A6A6A6",
"j 	c #4D4D4D",
"k 	c #010101",
"l 	c #EFEFEF",
"m 	c #C3C3C3",
"n 	c #494949",
"o 	c #202020",
"p 	c #060606",
"q 	c #393939",
"r 	c #9E9E9E",
"s 	c #8E8E8E",
"t 	c #222222",
"u 	c #5C5C5C",
"v 	c #E5E5E5",
"w 	c #363636",
"x 	c #1E1E1E",
"y 	c #535353",
"z 	c #121212",
"A 	c #EAEAEA",
"B 	c #F4F4F4",
"C 	c #989898",
"D 	c #424242",
"E 	c #737373",
"F 	c #232323",
"G 	c #070707",
"H 	c #767676",
"I 	c #626262",
"J 	c #171717",
"K 	c #EDEDED",
"L 	c #B9B9B9",
"M 	c #262626",
"N 	c #D5D5D5",
"O 	c #FDFDFD",
"P 	c #7D7D7D",
"Q 	c #EEEEEE",
"R 	c #9C9C9C",
"S 	c #7E7E7E",
"T 	c #878787",
"U 	c #ABABAB",
"V 	c #959595",
"W 	c #999999",
"X 	c #686868",
"Y 	c #313131",
"Z 	c #ECECEC",
"` 	c #4F4F4F",
" .	c #3A3A3A",
"..	c #0B0B0B",
"+.	c #CDCDCD",
"@.	c #F3F3F3",
"#.	c #D6D6D6",
"$.	c #333333",
"%.	c #404040",
"&.	c #0E0E0E",
"*.	c #DDDDDD",
"=.	c #919191",
"-.	c #909090",
";.	c #898989",
">.	c #272727",
",.	c #E0E0E0",
"'.	c #020202",
").	c #BFBFBF",
"!.	c #828282",
"~.	c #DADADA",
"{.	c #676767",
"].	c #E1E1E1",
"^.	c #111111",
"/.	c #E4E4E4",
"(.	c #5E5E5E",
". . . . . . . . . . . . . . . . . . . . . . . . . . . . . . . . . . . . . . . . . . . . . . . . . . . . . . ",
". . . . . . . . . . . . . . . . . . . . . . . . . . . . . . . . . . . . . . . . . . . . . . . . . . . . . . ",
". . . . . . . . . . . . . . . . . . . . . . . . . . . + @ # . . . . . . . . . . . . . . . . . . . . . . . . ",
". . . . . . . . . . . . . . . . . . . . . . . . . . . $ % & . . . . . . . . . . . . . . . . . . . . . . . . ",
". . . . . . . . . . . . . . . . . . . . . . . . . . . * = - ; > . . . . . . . . . . . . . . . . . . . . . . ",
". . . . . . . . . . . . . . . . . . . . . . . . . . > , ' ) ! ~ { . . . . . . . . . . . . . . . . . . . . . ",
". . . . . . . . . . . . . . . . . . . . . . . . . . ] ! ^ ) / ( _ . . . . . . . . . . . . . . . . . . . . . ",
". . . . . . . . . . . . . . . . . . . . . . . : < < [ ) ) ) ) ) - } | . . . . . . . . . . . . . . . . . . . ",
". . . . . . . . . . . . . . . . . . . . 1 2 2 3 ) ) ) ) ) ) ) ) ) 4 5 1 . . . . . . . . . . . . . . . . . . ",
". . . . . . . . . . . . . . . . . . . . 6 7 7 8 ) ) ) ) ) ) ) ) ) 9 0 6 . . . . . . . . . . . . . . . . . . ",
". . . . . . . . . . . . . . . . . . . a b ) ) ) ) ) ) ) ) ) ) ) ) ) ) b a . . . . . . . . . . . . . . . . . ",
". . . . . . . . . . . . . . . . . c d e ) ) ) ) ) ) ) ) ) ) ) ) ) ) ) ) e d c . . . . . . . . . . . . . . . ",
". . . . . . . . . . . . . . . . . f g h ) ) ) ) ) ) ) ) ) ) ) ) ) ) ) ) h g f . . . . . . . . . . . . . . . ",
". . . . . . . . . . . . . . . . i j k ) ) ) ) ) ) ) ) ) ) ) ) ) ) ) ) ) ) k j i . . . . . . . . . . . . . . ",
". . . . . . . . . . . . . . l m n ) ) ) ) ) ) ) ) ) ) ) ) ) ) ) ) ) ) ) ) ) ) n m l . . . . . . . . . . . . ",
". . . . . . . . . . . . . . m o p ) ) ) ) ) ) ) ) ) ) ) ) ) ) ) ) ) ) ) ) ) ) p o m . . . . . . . . . . . . ",
". . . . . . . . . . . . . i n p ) ) ) ) q r r r s t ) ) ) ) ) ) ) ) ) ) ) ) ) ) p n i . . . . . . . . . . . ",
". . . . . . . . . . . c f j ) ) ) ) ) ) u . . . v w ) ) ) ) ) ) ) ) ) ) ) ) ) ) ) ) j f c . . . . . . . . . ",
". . . . . . . . . . . d g k ) ) ) ) ) ) u . . . v w ) ) ) ) ) ) ) ) ) ) ) ) ) ) ) ) k g d . . . . . . . . . ",
". . . . . . . . . . a e h ) ) ) ) ) ) ) x y y y [ z ) ) ) ) ) ) ) ) ) ) ) ) ) ) ) ) ) h e a . . . . . . . . ",
". . . . . . . . 1 6 b ) ) ) ) ) ) ) ) ) ) ) ) ) ) ) ) ) ) ) ) ) ) ) ) ) ) ) ) ) ) ) ) ) ) b 6 1 . . . . . . ",
". . . . . . . | 5 0 ) ) ) ) ) ) ) ) ) ) ) ) ) ) ) ) ) ) ) ) ) ) ) ) ) ) ) ) ) ) ) ) ) ) ) ) 7 2 . . . . . . ",
". . . . . . . } 4 9 ) ) ) ) ) ) ) ) ) ) ) ) ) ) ) ) ) ) ) ) ) ) ) ) ) ) ) ) ) ) ) ) ) ) ) ) 7 2 . . . . . . ",
". . . . . { _ - ) ) ) ) ) ) ) ) ) ) ) ) ) ) ) ) ) ) ) ) ) ) ) ) ) ) ) ) ) ) ) ) ) ) ) ) ) ) 7 2 . . . . . . ",
". . . . . A 4 ) ) ) ) ) ) ) ) ) ) ) ) ) ) ) ) ) ) ) ) ) ) ) ) ) ) ) ) ) ) ) ) ) ) ) ) ) ) ) 7 2 . . . . . . ",
". . . . . A 4 ) ) ) ) ) ) ) ) ) ) ) ) ) ) ) ) ) ) ) ) ) ) ) ) ) ) ) ) ) ) ) ) ) ) ) ) ) ) ) 7 2 . . . . . . ",
". . . . . B C D ) ) ) ) ) ) ) ) ) ) ) ) 0 E o ) ) ) ) ) ) ) ) ) ) ) ) ) ) ) ) ) ) ) ) ) ) ) 7 2 . . . . . . ",
". . . . . . . r F G ) ) ) ) ) ) ) 9 = = H > I J ) ) ) ) ) ) ) ) ) ) ) ) ) ) ) ) ) ) ) ) ) ) 7 2 . . . . . . ",
". . . . . . . K L M ) ) ) ) ) ) ) D N * v O $ P ) ) ) ) ) ) ) ) ) ) ) ) ) ) ) ) ) ) ) ) ) ) 7 2 . . . . . . ",
". . . . . . . . Q R D ) ) ) t S T U + . . . . V ) ) ) ) ) ) ) ) ) ) ) ) ) ) ) ) ) ) ) ) ) ) 7 2 . . . . . . ",
". . . . . . . . . . W w w w X 1 . . . . . . . U Y 9 ) ) ) ) ) ) ) ) ) ) ) ) ) ) ) ) ) ) ) ) 7 2 . . . . . . ",
". . . . . . . . . . 1 v v v Z O . . . . . . . B d Y ) ) ) ) ) ) ) ) ) ) ) ) ) ) ) ) ) ) ) ) 7 2 . . . . . . ",
". . . . . . . . . . . . . . . . . . . . . . . . B U ` ) ) ) ) ) ) ) ) ) ) ) ) ) ) ) ) ) ) ) 7 2 . . . . . . ",
". . . . . . . . . . . . . . . . . . . . . . . . . . a  ...) ) ) ) ) ) ) ) ) ) ) ) ) ) ) ) ) 7 2 . . . . . . ",
". . . . . . . . . . . . . . . . . . . . . . . . . . @ +.M ) ) ) ) ) ) ) ) ) ) ) ) ) ) ) ) ) 7 2 . . . . . . ",
". . . . . . . . . . . . . . . . . . . . . . . . . . . * = ) ) ) ) ) ) ) ) ) ) ) ) ) ) ) ) ) 7 2 . . . . . . ",
". . . . . . . . . . . . . . . . . . . . . . . . . . . * = ) ) ) ) ) ) ) ) ) ) ) ) ) ) ) ) ) 7 2 . . . . . . ",
". . . . . . . . . . . . . . . . . . . . . . . . . . + N = ) ) ) ) ) ) ) ) ) ) ) ) ) ) ) ) ) 7 2 . . . . . . ",
". . . . . . . . . . . . . . . . . . . . . . . . . . U D 9 ) ) ) ) ) ) ) ) ) ) ) ) ) ) ) ) ) 7 2 . . . . . . ",
". . . . . . . . . . . . . . . . . . . . . . . . > 6 y ) ) ) ) ) ) ) ) ) ) ) ) ) ) ) ) ) ) ) 7 2 . . . . . . ",
". . . . . . . . . . . . . . . . . . . . . + @.Q #.$.) ) ) ) ) ) ) ) ) ) ) ) ) ) ) ) ) ) ) ) 7 2 . . . . . . ",
". . . . . . . . . . . . . . . . . . . . . { E %.q &.) ) ) ) ) ) ) ) ) ) ) ) ) ) ) ) ) ) ) ) 7 2 . . . . . . ",
". . . . . . . . . . . . . . . . . *.=.-.-.;.>.) ) ) ) ) ) ) ) ) ) ) ) ) ) ) ) ) ) ) ) ) ) ) 7 2 . . . . . . ",
". . . . . . . . . . . . . Q ,.,.,.R '.) ) ) ) ) ) ) ) ) ) ) ) ) ) ) ) ) ) ) ) ) ) ) ) ) ) ) 7 2 . . . . . . ",
". . . . . . . . . . . . . < ! ! ! t ) ) ) ) ) ) ) ) ) ) ) ) ) ) ) ) ) ) ) ) ) ) ) ) ) ) ) ) 7 2 . . . . . . ",
". . . . . . . . . . ).!.!.q ) ) ) ) ) ) ) ) ) ) ) ) ) ) ) ) ) ) ) ) ) ) ) ) ) ) ) ) ) ) ) ) 7 2 . . . . . . ",
". . . . . . . . @ ~.{.) ) ) ) ) ) ) ) ) ) ) ) ) ) ) ) ) ) ) ) ) ) ) ) ) ) ) ) ) ) ) ) ) ) ) 7 2 . . . . . . ",
". . . . . . . . ].[ ^.) ) ) ) ) ) ) ) ) ) ) ) ) ) ) ) ) ) ) ) ) ) ) ) ) ) ) ) ) ) ) ) ) ) ) 7 2 . . . . . . ",
". . . . . . . . 2 7 ) ) ) ) ) ) ) ) ) ) ) ) ) ) ) ) ) ) ) ) ) ) ) ) ) ) ) ) ) ) ) ) ) ) ) ) 7 2 . . . . . . ",
". . . . . . . . /.(.4 4 4 4 4 4 4 4 4 4 4 4 4 4 4 4 4 4 4 4 4 4 4 4 4 4 4 4 4 4 4 4 4 4 4 4 (./.. . . . . . ",
". . . . . . . . # K A A A A A A A A A A A A A A A A A A A A A A A A A A A A A A A A A A A A K # . . . . . . ",
". . . . . . . . . . . . . . . . . . . . . . . . . . . . . . . . . . . . . . . . . . . . . . . . . . . . . . ",
". . . . . . . . . . . . . . . . . . . . . . . . . . . . . . . . . . . . . . . . . . . . . . . . . . . . . . ",
". . . . . . . . . . . . . . . . . . . . . . . . . . . . . . . . . . . . . . . . . . . . . . . . . . . . . . "};
