/* XPM */
static char * bp_xpm[] = {
"54 54 102 2",
"  	c None",
". 	c #FFFFFF",
"+ 	c #FDFDFD",
"@ 	c #EEEEEE",
"# 	c #EAEAEA",
"$ 	c #F5F5F5",
"% 	c #EBEBEB",
"& 	c #656565",
"* 	c #3B3B3B",
"= 	c #A2A2A2",
"- 	c #CFCFCF",
"; 	c #7D7D7D",
"> 	c #1E1E1E",
", 	c #000000",
"' 	c #4A4A4A",
") 	c #A4A4A4",
"! 	c #F3F3F3",
"~ 	c #E5E5E5",
"{ 	c #808080",
"] 	c #2F2F2F",
"^ 	c #C5C5C5",
"/ 	c #F0F0F0",
"( 	c #1A1A1A",
"_ 	c #0A0A0A",
": 	c #282828",
"< 	c #A7A7A7",
"[ 	c #444444",
"} 	c #959595",
"| 	c #C6C6C6",
"1 	c #5C5C5C",
"2 	c #383838",
"3 	c #8B8B8B",
"4 	c #F8F8F8",
"5 	c #CACACA",
"6 	c #717171",
"7 	c #303030",
"8 	c #A9A9A9",
"9 	c #E3E3E3",
"0 	c #545454",
"a 	c #020202",
"b 	c #010101",
"c 	c #1B1B1B",
"d 	c #353535",
"e 	c #8A8A8A",
"f 	c #B1B1B1",
"g 	c #535353",
"h 	c #BDBDBD",
"i 	c #2A2A2A",
"j 	c #0D0D0D",
"k 	c #6E6E6E",
"l 	c #D7D7D7",
"m 	c #464646",
"n 	c #898989",
"o 	c #E4E4E4",
"p 	c #AEAEAE",
"q 	c #565656",
"r 	c #242424",
"s 	c #D4D4D4",
"t 	c #C9C9C9",
"u 	c #363636",
"v 	c #BFBFBF",
"w 	c #DADADA",
"x 	c #B9B9B9",
"y 	c #1C1C1C",
"z 	c #111111",
"A 	c #070707",
"B 	c #191919",
"C 	c #646464",
"D 	c #A3A3A3",
"E 	c #222222",
"F 	c #6C6C6C",
"G 	c #D2D2D2",
"H 	c #474747",
"I 	c #828282",
"J 	c #D5D5D5",
"K 	c #C2C2C2",
"L 	c #040404",
"M 	c #080808",
"N 	c #686868",
"O 	c #454545",
"P 	c #060606",
"Q 	c #232323",
"R 	c #676767",
"S 	c #D6D6D6",
"T 	c #6F6F6F",
"U 	c #101010",
"V 	c #FEFEFE",
"W 	c #DDDDDD",
"X 	c #636363",
"Y 	c #050505",
"Z 	c #3A3A3A",
"` 	c #9B9B9B",
" .	c #CDCDCD",
"..	c #1F1F1F",
"+.	c #747474",
"@.	c #3F3F3F",
"#.	c #9D9D9D",
"$.	c #E9E9E9",
"%.	c #D9D9D9",
"&.	c #F4F4F4",
"*.	c #ECECEC",
"=.	c #FBFBFB",
". . . . . . . . . . . . . . . . . . . . . . . . . . . . . . . . . . . . . . . . . . . . . . . . . . . . . . ",
". . . . . . . . . . . . . . . . . . . . . . . . . . . . . . . . . . . . . . . . . . . . . . . . . . . . . . ",
". . . . . . . . . . . . . . . . . . . . . . . . . . . . . . . . . . . . . . . . . . . . . . . . . . . . . . ",
". . . . . . . . . . . . . . . . . . . . . . . . . . . . . . . . . . . . . . . . . . . . . . . . . . . . . . ",
". . . . . . . . . . . . . . . . . . . . . . . . . . . . . . . . . . . . . . . . . . . . . . . . . . . . . . ",
". . . . . . . . . . . . . . . . . . . . . . . . + @ # # # $ . . . . . . . . . . . . . . . . . . . . . . . . ",
". . . . . . . . . . . . . . . . . . . . . . . . % & * * * = . . . . . . . . . . . . . . . . . . . . . . . . ",
". . . . . . . . . . . . . . . . . . . . . . . - ; > , , , ' ) ! . . . . . . . . . . . . . . . . . . . . . . ",
". . . . . . . . . . . . . . . . . . . . . + ~ { , , , , , , ] ^ / . . . . . . . . . . . . . . . . . . . . . ",
". . . . . . . . . . . . . . . . . . . . . $ & ( , , , , , , _ : < . . . . . . . . . . . . . . . . . . . . . ",
". . . . . . . . . . . . . . . . . . . . . ! [ , , , , , , , , , } . . . . . . . . . . . . . . . . . . . . . ",
". . . . . . . . . . . . . . . . . . . . . ! [ , , , , , , , , , } . . . . . . . . . . . . . . . . . . . . . ",
". . . . . . . . . . . . . . . . . . . . . ! [ , , , , , , , , , } . . . . . . . . . . . . . . . . . . . . . ",
". . . . . . . . . . . . . . . . . . . . . ! [ , , , , , , , , , } . . . . . . . . . . . . . . . . . . . . . ",
". . . . . . . . . . . . . . . . . . . . . ! [ , , , , , , , , , } . . . . . . . . . . . . . . . . . . . . . ",
". . . . . . . . . . . . . . . . . . . . . ! [ , , , , , , , , , } . . . . . . . . . . . . . . . . . . . . . ",
". . . . . . . . . . . . . . . . . . . . | 1 ( , , , , , , , , , 2 3 4 . . . . . . . . . . . . . . . . . . . ",
". . . . . . . . . . . . . . . . . . . 5 6 , , , , , , , , , , , , 7 8 9 . . . . . . . . . . . . . . . . . . ",
". . . . . . . . . . . . . . . . . . . 0 a , , , , , , , , , , , , b a ) . . . . . . . . . . . . . . . . . . ",
". . . . . . . . . . . . . . . . . 5 0 c , , , , , , , , , , , , , , , d e . . . . . . . . . . . . . . . . . ",
". . . . . . . . . . . . . . . . . f a , , , , , , , , , , , , , , , , , g . . . . . . . . . . . . . . . . . ",
". . . . . . . . . . . . . . . . . f a , , , , , , , , , , , , , , , , , g . . . . . . . . . . . . . . . . . ",
". . . . . . . . . . . . . . . . . f a , , , , , , , , , , , , , , , , , g . . . . . . . . . . . . . . . . . ",
". . . . . . . . . . . . . . . . . f a , , , , , , , , , , , , , , , , , g . . . . . . . . . . . . . . . . . ",
". . . . . . . . . . . . . . . . . f a , , , , , , , , , , , , , , , , , g . . . . . . . . . . . . . . . . . ",
". . . . . . . . . . . . . . . . . f a , , , , , , , , , , , , , , , , , g . . . . . . . . . . . . . . . . . ",
". . . . . . . . . . . . . . . . . f a , , , , , , , , , , , , , , , , , g . . . . . . . . . . . . . . . . . ",
". . . . . . . . . . . . . . . . . h i j , , , , , , , , , , , , , , , ( k . . . . . . . . . . . . . . . . . ",
". . . . . . . . . . . . . . . . . ! l m , , , , , , , , , , , , , , , n o . . . . . . . . . . . . . . . . . ",
". . . . . . . . . . . . . . . . . . . p q , , , , , , , , , , , , r { s . . . . . . . . . . . . . . . . . . ",
". . . . . . . . . . . . . . . . . @ t t { , , , , , , , , , , , , u v t w . . . . . . . . . . . . . . . . . ",
". . . . . . . . . . . . . . . . . x y ( z , , , , , , , , , , , , A B ( C . . . . . . . . . . . . . . . . . ",
". . . . . . . . . . . . . . . . D ' b , , , , , , , , , , , , , , , , , E F G . . . . . . . . . . . . . . . ",
". . . . . . . . . . . . . . @ v H , , , , , , , , , , , , , , , , , , , , a I J . . . . . . . . . . . . . . ",
". . . . . . . . . . . . . . K y L , , , , , , , , , , , , , , , , , , , , , M N . . . . . . . . . . . . . . ",
". . . . . . . . . . . . . D O P , , , , , , , , , , , , , , , , , , , , , , , Q R S . . . . . . . . . . . . ",
". . . . . . . . . . . . . T , , , , , , , , , , , , , , , , , , , , , , , , , , z v . . . . . . . . . . . . ",
". . . . . . . . . . . . + k , , , , , , , , , , , , , , , , , , , , , , , , , , U h V . . . . . . . . . . . ",
". . . . . . . . . . . W X E , , , , , , , , , , , , , , , , , , , , , , , , , , Y Z ` . . . . . . . . . . . ",
". . . . . . . . . . .  ..., , , , , , , , , , , , , , , , , , , , , , , , , , , , , T . . . . . . . . . . . ",
". . . . . . . . . . .  ..., , , , , , , , , , , , , , , , , , , , , , , , , , , , , T . . . . . . . . . . . ",
". . . . . . . . . . .  ..., , , , , , , , , , , , , , , , , , , , , , , , , , , , , T . . . . . . . . . . . ",
". . . . . . . . . . | +.z , , , , , , , , , , , , , , , , , , , , , , , , , , , , , @.#.$.. . . . . . . . . ",
". . . . . . . . . . ; , , , , , , , , , , , , , , , , , , , , , , , , , , , , , , , , .. .. . . . . . . . . ",
". . . . . . . . . . ; , , , , , , , , , , , , , , , , , , , , , , , , , , , , , , , , .. .. . . . . . . . . ",
". . . . . . . . . . ; , , , , , , , , , , , , , , , , , , , , , , , , , , , , , , , , .. .. . . . . . . . . ",
". . . . . . . . . . ; , , , , , , , , , , , , , , , , , , , , , , , , , , , , , , , , .. .. . . . . . . . . ",
". . . . . . . . . . ; , , , , , , , , , , , , , , , , , , , , , , , , , , , , , , , , .. .. . . . . . . . . ",
". . . . . . . . . . ; , , , , , , , , , , , , , , , , , , , , , , , , , , , , , , , , .. .. . . . . . . . . ",
". . . . . . . . . . ` * * * * * * * * * * * * * * * * * * * * * * * * * * * * * * * * g %.. . . . . . . . . ",
". . . . . . . . . . &.# # # # # # # # # # # # # # # # # # # # # # # # # # # # # # # # *.=.. . . . . . . . . ",
". . . . . . . . . . . . . . . . . . . . . . . . . . . . . . . . . . . . . . . . . . . . . . . . . . . . . . ",
". . . . . . . . . . . . . . . . . . . . . . . . . . . . . . . . . . . . . . . . . . . . . . . . . . . . . . ",
". . . . . . . . . . . . . . . . . . . . . . . . . . . . . . . . . . . . . . . . . . . . . . . . . . . . . . "};
