/* XPM */
static char * bq_xpm[] = {
"54 54 173 2",
"  	c None",
". 	c #FFFFFF",
"+ 	c #FCFCFC",
"@ 	c #F9F9F9",
"# 	c #FEFEFE",
"$ 	c #A9A9A9",
"% 	c #666666",
"& 	c #E2E2E2",
"* 	c #878787",
"= 	c #282828",
"- 	c #D7D7D7",
"; 	c #FBFBFB",
"> 	c #E3E3E3",
", 	c #747474",
"' 	c #232323",
") 	c #B9B9B9",
"! 	c #EEEEEE",
"~ 	c #EAEAEA",
"{ 	c #5A5A5A",
"] 	c #181818",
"^ 	c #070707",
"/ 	c #262626",
"( 	c #9C9C9C",
"_ 	c #E5E5E5",
": 	c #363636",
"< 	c #000000",
"[ 	c #F3F3F3",
"} 	c #D1D1D1",
"| 	c #ECECEC",
"1 	c #DDDDDD",
"2 	c #E0E0E0",
"3 	c #C7C7C7",
"4 	c #2D2D2D",
"5 	c #AAAAAA",
"6 	c #FDFDFD",
"7 	c #636363",
"8 	c #BFBFBF",
"9 	c #111111",
"0 	c #9E9E9E",
"a 	c #C3C3C3",
"b 	c #646464",
"c 	c #3B3B3B",
"d 	c #8E8E8E",
"e 	c #F0F0F0",
"f 	c #4E4E4E",
"g 	c #616161",
"h 	c #DBDBDB",
"i 	c #8F8F8F",
"j 	c #0C0C0C",
"k 	c #777777",
"l 	c #D3D3D3",
"m 	c #959595",
"n 	c #BDBDBD",
"o 	c #3A3A3A",
"p 	c #494949",
"q 	c #EFEFEF",
"r 	c #787878",
"s 	c #010101",
"t 	c #0A0A0A",
"u 	c #595959",
"v 	c #B2B2B2",
"w 	c #101010",
"x 	c #050505",
"y 	c #060606",
"z 	c #202020",
"A 	c #6F6F6F",
"B 	c #ACACAC",
"C 	c #B8B8B8",
"D 	c #EDEDED",
"E 	c #0B0B0B",
"F 	c #858585",
"G 	c #D4D4D4",
"H 	c #9A9A9A",
"I 	c #171717",
"J 	c #C5C5C5",
"K 	c #020202",
"L 	c #707070",
"M 	c #757575",
"N 	c #3D3D3D",
"O 	c #999999",
"P 	c #404040",
"Q 	c #A1A1A1",
"R 	c #676767",
"S 	c #242424",
"T 	c #191919",
"U 	c #525252",
"V 	c #F7F7F7",
"W 	c #818181",
"X 	c #303030",
"Y 	c #121212",
"Z 	c #4A4A4A",
"` 	c #B7B7B7",
" .	c #919191",
"..	c #383838",
"+.	c #E1E1E1",
"@.	c #6B6B6B",
"#.	c #252525",
"$.	c #B0B0B0",
"%.	c #CDCDCD",
"&.	c #1F1F1F",
"*.	c #444444",
"=.	c #5C5C5C",
"-.	c #D2D2D2",
";.	c #868686",
">.	c #A4A4A4",
",.	c #F4F4F4",
"'.	c #585858",
").	c #828282",
"!.	c #2E2E2E",
"~.	c #888888",
"{.	c #4D4D4D",
"].	c #151515",
"^.	c #7B7B7B",
"/.	c #CBCBCB",
"(.	c #BBBBBB",
"_.	c #F2F2F2",
":.	c #4C4C4C",
"<.	c #1C1C1C",
"[.	c #C9C9C9",
"}.	c #2C2C2C",
"|.	c #6E6E6E",
"1.	c #313131",
"2.	c #808080",
"3.	c #4F4F4F",
"4.	c #626262",
"5.	c #424242",
"6.	c #989898",
"7.	c #8B8B8B",
"8.	c #656565",
"9.	c #1E1E1E",
"0.	c #2F2F2F",
"a.	c #EBEBEB",
"b.	c #7D7D7D",
"c.	c #DCDCDC",
"d.	c #D5D5D5",
"e.	c #8C8C8C",
"f.	c #1D1D1D",
"g.	c #505050",
"h.	c #B3B3B3",
"i.	c #272727",
"j.	c #464646",
"k.	c #0D0D0D",
"l.	c #7A7A7A",
"m.	c #2A2A2A",
"n.	c #D6D6D6",
"o.	c #545454",
"p.	c #717171",
"q.	c #DEDEDE",
"r.	c #CCCCCC",
"s.	c #292929",
"t.	c #F6F6F6",
"u.	c #CACACA",
"v.	c #090909",
"w.	c #DADADA",
"x.	c #686868",
"y.	c #A5A5A5",
"z.	c #F1F1F1",
"A.	c #C6C6C6",
"B.	c #DFDFDF",
"C.	c #A6A6A6",
"D.	c #767676",
"E.	c #D8D8D8",
"F.	c #A8A8A8",
"G.	c #ABABAB",
"H.	c #E6E6E6",
"I.	c #565656",
"J.	c #323232",
"K.	c #B1B1B1",
"L.	c #969696",
"M.	c #515151",
"N.	c #E4E4E4",
"O.	c #5E5E5E",
"P.	c #9B9B9B",
". . . . . . . . . . . . . . . . . . . . . . . . . . . . . . . . . . . . . . . . . . . . . . . . . . . . . . ",
". . . . . . . . . . . . . . . . . . . . . . . . . . . . . . . . . . . . . . . . . . . . . . . . . . . . . . ",
". . . . . . . . . . . . . . . . . . . . . . . . . . + @ # . . . . . . . . . . . . . . . . . . . . . . . . . ",
". . . . . . . . . . . . . . . . . . . . . . . . . . $ % & . . . . . . . . . . . . . . . . . . . . . . . . . ",
". . . . . . . . . . . . . . . . . . . . . . . . . . * = - . . . . . . . . . . . . . . . . . . . . . . . . . ",
". . . . . . . . . . . . . . . . . . . . . . . . . . * = - . . . . . . . . . . . . . . . . . . . . . . . . . ",
". . . . . . . . . . . . . . . . . . . . . . . . . . * = - . . . . . . . . . . . . . . . . . . . . . . . . . ",
". . . . . . . . . . . . . . . . . . . . . . . . . . * = - . . . . . . . . . . . . . . . . . . . . . . . . . ",
". . . . . . . . . . . . . . . . . . . . . . . . ; > , ' ) ! . . . . . . . . . . . . . . . . . . . . . . . . ",
". . . . . . . . . . . . . . . . . . . . . . . . ~ { ] ^ / ( . . . . . . . . . . . . . . . . . . . . . . . . ",
". . . . . . . . . . . . . . . . . . . . . . . . _ : < < < * . . . . . . . . . . . . . . . . . . . . . . . . ",
". . . . . . . . . . . . . . [ } | . . . . . . . _ : < < < * . . . . . . . . 1 2 . . . . . . . . . . . . . . ",
". . . . . . . . . . . . . . 3 4 5 . . . . . . . _ : < < < * . . . . . . . 6 7 , . . . . . . . . . . . . . . ",
". . . . . . . . . . . . . . 8 9 0 . . . . . . a b ] < < < c d e . . . . . 6 f g . . . . . . . . . . . . . . ",
". . . . . . . . . . . . . h i j k l # . . . . m < < < < < < : _ . . . . ~ n o p a q . . . . . . . . . . . . ",
". . . . . . . . . . . . . r j s t u 6 . . . . m < < < < < < : _ . . . . v w x y z a . . . . . . . . . . . . ",
". . . . . . . . . . . . . A < < < f 6 . . . . m < < < < < < : _ . . . . B < < < 9 8 . . . . . . . . . . . . ",
". . . . 2 C D . . . . . . A < < < f 6 . . . . m < < < < < < : _ . . . . B < < < E F l . . . . . G a @ . . . ",
". . . . H I J . . . . . . A < < < f 6 . . . . m < < < < < < : _ . . . . B < < < < K L . . . . . M N ~ . . . ",
". . . . O ^ P Q . . . 1 R S < < < T U 3 . V W X < < < < < < Y Z ` . .  ...< < < < < A . . . +.@.#.c ~ . . . ",
". . . . O < < Z $.q . %.&.< < < < < < B . [ *.< < < < < < < < < m . . =.< < < < < < A . . -.;.I < c ~ . . . ",
". . . . O < < < ' -.. %.&.< < < < < < >.V [ *.< < < < < < < < < m + ,.'.< < < < < < A . . ).< < < c ~ . . . ",
". . . . O < < < ' -.. %.&.< < < < < < !.~.[ *.< < < < < < < < < m %.{.T < < < < < < A . . ).< < < c ~ . . . ",
". . . . O < < < ].^./.%.&.< < < < < < < =.[ *.< < < < < < < < < m (.j < < < < < < < A _.$ :.< < < c ~ . . . ",
". . . . O < < < < < M C <.< < < < < < < =.[ *.< < < < < < < < < m (.j < < < < < < < b [.4 < < < < c ~ . . . ",
". . . . O < < < < < <.}.^ < < < < < < < =.[ *.< < < < < < < < < m (.j < < < < < < < ] X E < < < < c ~ . . . ",
". . . . [.|.<.< < < < < < < < < < < < < 1.2.S < < < < < < < < < 3.4.y < < < < < < < < < < < < < 5.6.,.. . . ",
". . . . . ~ c < < < < < < < < < < < < < < < < < < < < < < < < < < < < < < < < < < < < < < < < < 7.. . . . . ",
". . . . . ~ c < < < < < < < < < < < < < < < < < < < < < < < < < < < < < < < < < < < < < < < < < 7.. . . . . ",
". . . . . ~ c < < < < < < < < < < < < < < < < < < < < < < < < < < < < < < < < < < < < < < < < < 7.. . . . . ",
". . . . . ! 8.9.< < < < < < < < < < < < < < < < < < < < < < < < < < < < < < < < < < < < < < t 0.>.. . . . . ",
". . . . . 6 a.b.< < < < < < < < < < < < < < < < < < < < < < < < < < < < < < < < < < < < < < = J [ . . . . . ",
". . . . . . . 7.< < < < < < < < < < < < < < < < < < < < < < < < < < < < < < < < < < < < < < 4 c.. . . . . . ",
". . . . . . . 7.< < < < < < < < < < < < < < < < < < < < < < < < < < < < < < < < < < < < < < 4 c.. . . . . . ",
". . . . . . . 7.< < < < < < < < < < < < < < < < < < < < < < < < < < < < < < < < < < < < < < 4 c.. . . . . . ",
". . . . . . . d.e.f.< < < < < < < < < < < < < < < < < < < < < < < < < < < < < < < < < < < g.h._.. . . . . . ",
". . . . . . . . c.4 < < < < < < < < < < < < < < < < i.j.k.< < < < < < < < < < < < < < < < b.. . . . . . . . ",
". . . . . . . . c.4 < < < < < < < < < < < < < < < K l.- m.s < < < < < < < < < < < < < < < b.. . . . . . . . ",
". . . . . . . . c.4 < < < < < < < < < < < < < < Y 7.n.[ n o.< < < < < < < < < < < < < < < b.. . . . . . . . ",
". . . . . . . . c.4 < < < < < < < < < < < < < = p.1 . . . B :.t < < < < < < < < < < < < < b.. . . . . . . . ",
". . . . . . . . q.o 9 9 9 9 9 9 y < < < < s j , 6 _.! ! ! V r.s.^ < < < < < E 9 9 9 9 9 9 ;.. . . . . . . . ",
". . . . . . . . t.u.8 8 8 8 8 8 p < < < < v.e.w.| x.P P P y.z.A.g.< < < < K F 8 8 8 8 8 8 B.. . . . . . . . ",
". . . . . . . . . . . . . . . . C.A A A A D.E.} W &.< < < :.F.,.G.A A A A L l . . . . . . . . . . . . . . . ",
". . . . . . . . ; H.2 2 2 2 2 2 [ . . . . . . m < < < < < < : _ . . . . . . ~ 2 2 2 2 2 2 q . . . . . . . . ",
". . . . . . . . & I.J.J.J.J.J.J.K.. . . . . . m < < < < < < : _ . . . . . 6 L J.J.J.J.J.J.L.. . . . . . . . ",
". . . . . . . . c.4 < < < < < < M.).).).).).).:.< < < < < < <.M ).).).).).W = < < < < < < b.. . . . . . . . ",
". . . . . . . . c.4 < < < < < < < < < < < < < < < < < < < < < < < < < < < < < < < < < < < b.. . . . . . . . ",
". . . . . . . . c.4 < < < < < < < < < < < < < < < < < < < < < < < < < < < < < < < < < < < b.. . . . . . . . ",
". . . . . . . . c.4 < < < < < < < < < < < < < < < < < < < < < < < < < < < < < < < < < < < b.. . . . . . . . ",
". . . . . . . . N.O.c c c c c c c c c c c c c c c c c c c c c c c c c c c c c c c c c c c P.. . . . . . . . ",
". . . . . . . . + D ~ ~ ~ ~ ~ ~ ~ ~ ~ ~ ~ ~ ~ ~ ~ ~ ~ ~ ~ ~ ~ ~ ~ ~ ~ ~ ~ ~ ~ ~ ~ ~ ~ ~ ~ ,.. . . . . . . . ",
". . . . . . . . . . . . . . . . . . . . . . . . . . . . . . . . . . . . . . . . . . . . . . . . . . . . . . ",
". . . . . . . . . . . . . . . . . . . . . . . . . . . . . . . . . . . . . . . . . . . . . . . . . . . . . . ",
". . . . . . . . . . . . . . . . . . . . . . . . . . . . . . . . . . . . . . . . . . . . . . . . . . . . . . "};
