/* XPM */
static char * br_xpm[] = {
"54 54 62 1",
" 	c None",
".	c #FFFFFF",
"+	c #C4C4C4",
"@	c #8B8B8B",
"#	c #DADADA",
"$	c #FAFAFA",
"%	c #AAAAAA",
"&	c #CFCFCF",
"*	c #B5B5B5",
"=	c #999999",
"-	c #E9E9E9",
";	c #7D7D7D",
">	c #000000",
",	c #ACACAC",
"'	c #F3F3F3",
")	c #444444",
"!	c #959595",
"~	c #5C5C5C",
"{	c #1F1F1F",
"]	c #CDCDCD",
"^	c #555555",
"/	c #777777",
"(	c #222222",
"_	c #494949",
":	c #2D2D2D",
"<	c #595959",
"[	c #9E9E9E",
"}	c #949494",
"|	c #282828",
"1	c #A5A5A5",
"2	c #4E4E4E",
"3	c #868686",
"4	c #B1B1B1",
"5	c #ABABAB",
"6	c #676767",
"7	c #636363",
"8	c #DDDDDD",
"9	c #FEFEFE",
"0	c #FDFDFD",
"a	c #6F6F6F",
"b	c #020202",
"c	c #131313",
"d	c #BEBEBE",
"e	c #111111",
"f	c #BFBFBF",
"g	c #A6A6A6",
"h	c #616161",
"i	c #6B6B6B",
"j	c #D7D7D7",
"k	c #F1F1F1",
"l	c #EEEEEE",
"m	c #F7F7F7",
"n	c #E4E4E4",
"o	c #404040",
"p	c #DCDCDC",
"q	c #5E5E5E",
"r	c #3B3B3B",
"s	c #9B9B9B",
"t	c #FCFCFC",
"u	c #EDEDED",
"v	c #EAEAEA",
"w	c #F4F4F4",
"......................................................",
"......................................................",
"......................................................",
"......................................................",
"......................................................",
"......................................................",
"......................................................",
"..........+@@@@@@@@#.$%@@@@@@@@@&..*@@@@@@@=-.........",
"..........;>>>>>>>>,.')>>>>>>>>>!..~>>>>>>>{].........",
"..........;>>>>>>>>,.')>>>>>>>>>!..~>>>>>>>{].........",
"..........;>>>>>>>>^;/(>>>>>>>>>_;;:>>>>>>>{].........",
"..........;>>>>>>>>>>>>>>>>>>>>>>>>>>>>>>>>{].........",
"..........;>>>>>>>>>>>>>>>>>>>>>>>>>>>>>>>>{].........",
"..........;>>>>>>>>>>>>>>>>>>>>>>>>>>>>>>>>{].........",
"..........;>>>>>>>>>>>>>>>>>>>>>>>>>>>>>>>>{].........",
"..........;>>>>>>>>>>>>>>>>>>>>>>>>>>>>>>>>{].........",
"..........;>><[[[[[[[[[[[[[[[[[[[[[[[[[[}|>{].........",
"..........12234444444444444444444444444456278.........",
"..........900abbbbbbbbbbbbbbbbbbbbbbbbbbcd00..........",
".............a>>>>>>>>>>>>>>>>>>>>>>>>>>ef............",
".............a>>>>>>>>>>>>>>>>>>>>>>>>>>ef............",
".............a>>>>>>>>>>>>>>>>>>>>>>>>>>ef............",
".............a>>>>>>>>>>>>>>>>>>>>>>>>>>ef............",
".............a>>>>>>>>>>>>>>>>>>>>>>>>>>ef............",
".............a>>>>>>>>>>>>>>>>>>>>>>>>>>ef............",
".............a>>>>>>>>>>>>>>>>>>>>>>>>>>ef............",
".............a>>>>>>>>>>>>>>>>>>>>>>>>>>ef............",
".............a>>>>>>>>>>>>>>>>>>>>>>>>>>ef............",
".............a>>>>>>>>>>>>>>>>>>>>>>>>>>ef............",
".............a>>>>>>>>>>>>>>>>>>>>>>>>>>ef............",
".............a>>>>>>>>>>>>>>>>>>>>>>>>>>ef............",
".............a>>>>>>>>>>>>>>>>>>>>>>>>>>ef............",
".............a>>>>>>>>>>>>>>>>>>>>>>>>>>ef............",
".............a>>>>>>>>>>>>>>>>>>>>>>>>>>ef............",
".............a>>>>>>>>>>>>>>>>>>>>>>>>>>ef............",
".............a>>>>>>>>>>>>>>>>>>>>>>>>>>ef............",
".............a>>>>>>>>>>>>>>>>>>>>>>>>>>ef............",
".............a>>>>>>>>>>>>>>>>>>>>>>>>>>ef............",
".............a>>>>>>>>>>>>>>>>>>>>>>>>>>ef............",
".............ghhhhhhhhhhhhhhhhhhhhhhhhhhij............",
"........0klllllllllllllllllllllllllllllllllllm........",
"........nhooooooooooooooooooooooooooooooooooo[........",
"........p:>>>>>>>>>>>>>>>>>>>>>>>>>>>>>>>>>>>;........",
"........p:>>>>>>>>>>>>>>>>>>>>>>>>>>>>>>>>>>>;........",
"........p:>>>>>>>>>>>>>>>>>>>>>>>>>>>>>>>>>>>;........",
"........p:>>>>>>>>>>>>>>>>>>>>>>>>>>>>>>>>>>>;........",
"........p:>>>>>>>>>>>>>>>>>>>>>>>>>>>>>>>>>>>;........",
"........p:>>>>>>>>>>>>>>>>>>>>>>>>>>>>>>>>>>>;........",
"........p:>>>>>>>>>>>>>>>>>>>>>>>>>>>>>>>>>>>;........",
"........nqrrrrrrrrrrrrrrrrrrrrrrrrrrrrrrrrrrrs........",
"........tuvvvvvvvvvvvvvvvvvvvvvvvvvvvvvvvvvvvw........",
"......................................................",
"......................................................",
"......................................................"};
