/* XPM */
static char * wb_xpm[] = {
"54 54 173 2",
"  	c None",
". 	c #FFFFFF",
"+ 	c #F5F5F5",
"@ 	c #EDEDED",
"# 	c #FCFCFC",
"$ 	c #A2A2A2",
"% 	c #5A5A5A",
"& 	c #E0E0E0",
"* 	c #F3F3F3",
"= 	c #A4A4A4",
"- 	c #4A4A4A",
"; 	c #161616",
"> 	c #757575",
", 	c #C8C8C8",
"' 	c #F0F0F0",
") 	c #C5C5C5",
"! 	c #2F2F2F",
"~ 	c #111111",
"{ 	c #1E1E1E",
"] 	c #060606",
"^ 	c #747474",
"/ 	c #E3E3E3",
"( 	c #FBFBFB",
"_ 	c #A7A7A7",
": 	c #282828",
"< 	c #0A0A0A",
"[ 	c #636363",
"} 	c #B1B1B1",
"| 	c #212121",
"1 	c #181818",
"2 	c #EAEAEA",
"3 	c #CBCBCB",
"4 	c #1C1C1C",
"5 	c #3B3B3B",
"6 	c #696969",
"7 	c #141414",
"8 	c #454545",
"9 	c #9D9D9D",
"0 	c #F2F2F2",
"a 	c #B8B8B8",
"b 	c #2C2C2C",
"c 	c #171717",
"d 	c #2A2A2A",
"e 	c #080808",
"f 	c #6C6C6C",
"g 	c #D8D8D8",
"h 	c #FAFAFA",
"i 	c #070707",
"j 	c #6A6A6A",
"k 	c #BDBDBD",
"l 	c #232323",
"m 	c #101010",
"n 	c #4E4E4E",
"o 	c #E8E8E8",
"p 	c #9E9E9E",
"q 	c #6F6F6F",
"r 	c #414141",
"s 	c #000000",
"t 	c #787878",
"u 	c #D7D7D7",
"v 	c #646464",
"w 	c #BFBFBF",
"x 	c #3E3E3E",
"y 	c #1B1B1B",
"z 	c #404040",
"A 	c #9A9A9A",
"B 	c #E1E1E1",
"C 	c #5E5E5E",
"D 	c #323232",
"E 	c #7A7A7A",
"F 	c #C0C0C0",
"G 	c #ECECEC",
"H 	c #6B6B6B",
"I 	c #050505",
"J 	c #EEEEEE",
"K 	c #F6F6F6",
"L 	c #F1F1F1",
"M 	c #BCBCBC",
"N 	c #0B0B0B",
"O 	c #131313",
"P 	c #B6B6B6",
"Q 	c #A6A6A6",
"R 	c #616161",
"S 	c #252525",
"T 	c #C7C7C7",
"U 	c #A8A8A8",
"V 	c #393939",
"W 	c #020202",
"X 	c #BABABA",
"Y 	c #4D4D4D",
"Z 	c #303030",
"` 	c #C6C6C6",
" .	c #B5B5B5",
"..	c #191919",
"+.	c #4F4F4F",
"@.	c #939393",
"#.	c #D3D3D3",
"$.	c #CECECE",
"%.	c #010101",
"&.	c #FDFDFD",
"*.	c #FEFEFE",
"=.	c #BBBBBB",
"-.	c #0E0E0E",
";.	c #525252",
">.	c #707070",
",.	c #434343",
"'.	c #ACACAC",
").	c #3C3C3C",
"!.	c #040404",
"~.	c #6E6E6E",
"{.	c #8F8F8F",
"].	c #A1A1A1",
"^.	c #2B2B2B",
"/.	c #242424",
"(.	c #676767",
"_.	c #DDDDDD",
":.	c #7D7D7D",
"<.	c #909090",
"[.	c #EBEBEB",
"}.	c #444444",
"|.	c #585858",
"1.	c #898989",
"2.	c #1F1F1F",
"3.	c #CDCDCD",
"4.	c #F9F9F9",
"5.	c #1D1D1D",
"6.	c #C4C4C4",
"7.	c #363636",
"8.	c #6D6D6D",
"9.	c #9B9B9B",
"0.	c #373737",
"a.	c #A0A0A0",
"b.	c #494949",
"c.	c #151515",
"d.	c #5D5D5D",
"e.	c #BEBEBE",
"f.	c #B0B0B0",
"g.	c #545454",
"h.	c #575757",
"i.	c #DCDCDC",
"j.	c #2D2D2D",
"k.	c #313131",
"l.	c #9C9C9C",
"m.	c #424242",
"n.	c #C2C2C2",
"o.	c #CCCCCC",
"p.	c #E5E5E5",
"q.	c #AEAEAE",
"r.	c #5B5B5B",
"s.	c #DBDBDB",
"t.	c #EFEFEF",
"u.	c #A3A3A3",
"v.	c #030303",
"w.	c #F7F7F7",
"x.	c #E4E4E4",
"y.	c #7C7C7C",
"z.	c #474747",
"A.	c #F8F8F8",
"B.	c #121212",
"C.	c #999999",
"D.	c #A9A9A9",
"E.	c #606060",
"F.	c #7E7E7E",
"G.	c #818181",
"H.	c #828282",
"I.	c #4C4C4C",
"J.	c #808080",
"K.	c #D2D2D2",
"L.	c #5F5F5F",
"M.	c #737373",
"N.	c #8B8B8B",
"O.	c #565656",
"P.	c #9F9F9F",
". . . . . . . . . . . . . . . . . . . . . . . . . . . . . . . . . . . . . . . . . . . . . . . . . . . . . . ",
". . . . . . . . . . . . . . . . . . . . . . . . . . . . . . . . . . . . . . . . . . . . . . . . . . . . . . ",
". . . . . . . . . . . . . . . . . . . . . . . . . . . . . . . . . . . . . . . . . . . . . . . . . . . . . . ",
". . . . . . . . . . . . . . . . . . . . . . . . . . . . . . . . . . . . . . . . . . . . . . . . . . . . . . ",
". . . . . . . . . . . . . . . . . . . . . . . . . . . . . . . . . . . . . . . . . . . . . . . . . . . . . . ",
". . . . . . . . . . . . . . . . . . . . . . . . . . + @ # . . . . . . . . . . . . . . . . . . . . . . . . . ",
". . . . . . . . . . . . . . . . . . . . . . . . . . $ % & . . . . . . . . . . . . . . . . . . . . . . . . . ",
". . . . . . . . . . . . . . . . . . . . . . . . * = - ; > , . . . . . . . . . . . . . . . . . . . . . . . . ",
". . . . . . . . . . . . . . . . . . . . . . . ' ) ! ~ { ] ^ / ( . . . . . . . . . . . . . . . . . . . . . . ",
". . . . . . . . . . . . . . . . . . . . . . . _ : < [ } | 1 % 2 . . . . . . . . . . . . . . . . . . . . . . ",
". . . . . . . . . . . . . . . . . . . . . . . 3 > 4 5 6 7 8 9 0 . . . . . . . . . . . . . . . . . . . . . . ",
". . . . . . . . . . . . . . . . . . . . . . . 2 a b c d e f g h . . . . . . . . . . . . . . . . . . . . . . ",
". . . . . . . . . . . . . . . . . . . . . . . $ 4 i j k l m n o . . . . . . . . . . . . . . . . . . . . . . ",
". . . . . . . . . . . . . . . . . . . p q q q r s s t u : s 1 v q q q 3 . . . . . . . . . . . . . . . . . . ",
". . . . . . . . . . . . . . . . u w w x s s s y z z A B C z D ] s s s E w F G . . . . . . . . . . . . . . . ",
". . . . . . . . . . . . . . . . H ~ ~ I s s s [ J J K # L J M 1 s s s N ~ O P . . . . . . . . . . . . . . . ",
". . . . . . . . . . . . . Q R R S s s H p p p T . . . . . . 2 U p p p V s W } . . . . . . . . . . . . . . . ",
". . . . . . . . . . . ' X Y s s Z n n ` . . . . . . . . . . . . . 2  .z ..+.@.} } } #.. . . . . . . . . . . ",
". . . . . . . . . . . $.| %.s s 9 &.&.*.. . . . . . . . . . . . . =.-.%.;.h +.W W W >.. . . . . . . . . . . ",
". . . . . . . . . . _ ,.< R '.'.& . . . . . . . . . . . . . . . A ).!.~.{.;...r ].^./.(._.. . . . . . . . . ",
". . . . . . . . . . :.s s <.. . . . . . . . . . . . . . . . [.'.}...|.1.~.%.z A J z s 2.3.. . . . . . . . . ",
". . . . . . . . . . :.s s <.. . . . . . . . . . . . . . . 4.w ..i - o |.!.-. .. J z s 5.6.4.. . . . . . . . ",
". . . . . . . . . . :.s s <.. . . . . . . . . . . . . . . 9 7.i 8.9.- ..).=.2 . J z s e 0.a.. . . . . . . . ",
". . . . . . . . ' _ b.c.d.e.. . . . . . . . . . . . . . . f.g.N h.8.i }.A . . . + {.).s s :.. . . . . . . . ",
". . . . . . . . i.j.s D & . . . . . . . . . . . . . . . . . $.k.N i ..'.. . . . . . <.s s :.. . . . . . . . ",
". . . . . . . . i.j.s D & . . . . . . . . . . . . . . . . . * $.g.7.w [.. . . . . . <.s s :.. . . . . . . . ",
". . . . . . . . i.j.s D & . . . . . . . . . . . . . . . . . . . f.9 4.. . . . . . . <.s s :.. . . . . . . . ",
". . . . . . . . i.j.s D & . . . . . . . . . . . . . . . . . . . . . . . . . . . . . <.s s :.. . . . . . . . ",
". . . . . . . . i.j.s D & . . . . . . . . . . . . . . . . . . . . . . . . . . . . . <.s s :.. . . . . . . . ",
". . . . . . . . J l.m.c j 6.. . . . . . . . . . . . . . . . . . . . . . . . . . K A }.m f n.. . . . . . . . ",
". . . . . . . . . . :.s s <.. . . . . . . . . . . . . . . . . . . . . . . . . . J z s 2.3.. . . . . . . . . ",
". . . . . . . . . . :.s s <.. . . . . . . . . . . . . . . . . . . . . . . . . . J z s 2.3.. . . . . . . . . ",
". . . . . . . . . . :.s s <.. . . . . . . . . . . . . . . . . . . . . . . . . . J z s 2.3.. . . . . . . . . ",
". . . . . . . . . . a.0.e 6 o.( . . . . . . . . . . . . . . . . . . . . . . . p.q.! { r.s.. . . . . . . . . ",
". . . . . . . . . . 4.6.5.i b.t.. . . . . . . . . . . . . . . . . . . . . . . u.N v.j + &.. . . . . . . . . ",
". . . . . . . . . . . 3.2.s z J . . . . . . . . . . . . . . . . . . . . . . . p s s q . . . . . . . . . . . ",
". . . . . . . . . . . _.(./.^.].'.'.'.'.'.'.'.'.'.'.'.'.'.'.'.'.'.'.'.'.'.'.'.H I x p . . . . . . . . . . . ",
". . . . . . . . . . . . . q s s s s s s s s s s s s s s s s s s s s s s s s s s ~ w . . . . . . . . . . . . ",
". . . . . . . . . . . . . q s s s s s s s s s s s s s s s s s s s s s s s s s s ~ w . . . . . . . . . . . . ",
". . . . . . . . . . . . . Q R R R R R R R R R R R R R R R R R R R R R R R R R R H u . . . . . . . . . . . . ",
". . . . . . . . &.L J J J J J J J J J J J J J J J J K # L J J J J J J J J J J J J J J J J w.. . . . . . . . ",
". . . . . . . . x.R z z z z z z z z z z z z z z z z A B C z z z z z z z z z z z z z z z z p . . . . . . . . ",
". . # f.<.<.<.<.y...s s s s s s s s s s s s s s s s t u : s s s s s s s s s s s s s s s s z.<.<.<.<.<.#.. . ",
". . A.b.s s s s !...2.2.2.2.2.2.2.2.2.2.2.2.2.B.s s t u : s i 4 2.2.2.2.2.2.2.2.2.2.2.2.2.m s s s s s C.. . ",
". . A.b.s s s s 5.D.3.3.3.3.3.3.3.3.3.3.3.3.3.t s s t u : s b a 3.3.3.3.3.3.3.3.3.3.3.3.3.6 s s s s s C.. . ",
". . A.b.s < E.:.F.G.H.H.H.H.H.H.H.H.H.H.H.H.H.I.s s t u : s 4 > H.H.H.H.H.H.H.H.H.H.H.H.H.J.:.:.V s s C.. . ",
". . A.b.s B.].K. .S s s s s s s s s s s s s s s s s t u : s s s s s s s s s s s s s s s s (.K.K.L.s s C.. . ",
". . A.b.s v.y l { ] s s s s s s s s s s s s s s s s t u : s s s s s s s s s s s s s s s s ~ l l m s s C.. . ",
". . A.b.s s s s O M.N.N.N.N.N.N.N.N.N.N.N.N.N.N.N.N.n.@ p N.N.N.N.N.N.N.N.N.N.N.N.N.N.N.N.z.s s s s s C.. . ",
". . h M.5 5 5 5 O._.. . . . . . . . . . . . . . . . . . . . . . . . . . . . . . . . . . . P.5 5 5 5 5 } . . ",
". . *.' 2 2 2 2 @ ( . . . . . . . . . . . . . . . . . . . . . . . . . . . . . . . . . . . + 2 2 2 2 2 w.. . ",
". . . . . . . . . . . . . . . . . . . . . . . . . . . . . . . . . . . . . . . . . . . . . . . . . . . . . . ",
". . . . . . . . . . . . . . . . . . . . . . . . . . . . . . . . . . . . . . . . . . . . . . . . . . . . . . ",
". . . . . . . . . . . . . . . . . . . . . . . . . . . . . . . . . . . . . . . . . . . . . . . . . . . . . . "};
