/* XPM */
static char * wk_xpm[] = {
"54 54 185 2",
"  	c None",
". 	c #FFFFFF",
"+ 	c #FEFEFE",
"@ 	c #F9F9F9",
"# 	c #F8F8F8",
"$ 	c #FCFCFC",
"% 	c #ECECEC",
"& 	c #707070",
"* 	c #494949",
"= 	c #A9A9A9",
"- 	c #D5D5D5",
"; 	c #8A8A8A",
"> 	c #212121",
", 	c #000000",
"' 	c #515151",
") 	c #AFAFAF",
"! 	c #F5F5F5",
"~ 	c #EFEFEF",
"{ 	c #888888",
"] 	c #020202",
"^ 	c #111111",
"/ 	c #151515",
"( 	c #0A0A0A",
"_ 	c #323232",
": 	c #D2D2D2",
"< 	c #F6F6F6",
"[ 	c #222222",
"} 	c #141414",
"| 	c #9A9A9A",
"1 	c #C4C4C4",
"2 	c #5D5D5D",
"3 	c #0D0D0D",
"4 	c #353535",
"5 	c #ADADAD",
"6 	c #F3F3F3",
"7 	c #444444",
"8 	c #1A1A1A",
"9 	c #C9C9C9",
"0 	c #787878",
"a 	c #959595",
"b 	c #F2F2F2",
"c 	c #D1D1D1",
"d 	c #3B3B3B",
"e 	c #161616",
"f 	c #DCDCDC",
"g 	c #686868",
"h 	c #808080",
"i 	c #E5E5E5",
"j 	c #FDFDFD",
"k 	c #B3B3B3",
"l 	c #2B2B2B",
"m 	c #0C0C0C",
"n 	c #050505",
"o 	c #232323",
"p 	c #2D2D2D",
"q 	c #656565",
"r 	c #A3A3A3",
"s 	c #E0E0E0",
"t 	c #CDCDCD",
"u 	c #838383",
"v 	c #272727",
"w 	c #373737",
"x 	c #CECECE",
"y 	c #F0F0F0",
"z 	c #747474",
"A 	c #1F1F1F",
"B 	c #B1B1B1",
"C 	c #171717",
"D 	c #080808",
"E 	c #1D1D1D",
"F 	c #BABABA",
"G 	c #E3E3E3",
"H 	c #6F6F6F",
"I 	c #2A2A2A",
"J 	c #6A6A6A",
"K 	c #010101",
"L 	c #4D4D4D",
"M 	c #AEAEAE",
"N 	c #DFDFDF",
"O 	c #282828",
"P 	c #404040",
"Q 	c #3D3D3D",
"R 	c #505050",
"S 	c #C6C6C6",
"T 	c #F1F1F1",
"U 	c #DDDDDD",
"V 	c #979797",
"W 	c #131313",
"X 	c #252525",
"Y 	c #3F3F3F",
"Z 	c #535353",
"` 	c #C7C7C7",
" .	c #868686",
"..	c #949494",
"+.	c #EEEEEE",
"@.	c #070707",
"#.	c #292929",
"$.	c #CCCCCC",
"%.	c #818181",
"&.	c #8B8B8B",
"*.	c #E9E9E9",
"=.	c #7D7D7D",
"-.	c #303030",
";.	c #9E9E9E",
">.	c #DADADA",
",.	c #BCBCBC",
"'.	c #595959",
").	c #4E4E4E",
"!.	c #989898",
"~.	c #EAEAEA",
"{.	c #B2B2B2",
"].	c #454545",
"^.	c #0F0F0F",
"/.	c #575757",
"(.	c #BFBFBF",
"_.	c #F4F4F4",
":.	c #8C8C8C",
"<.	c #DEDEDE",
"[.	c #313131",
"}.	c #2F2F2F",
"|.	c #7B7B7B",
"1.	c #181818",
"2.	c #8E8E8E",
"3.	c #D6D6D6",
"4.	c #585858",
"5.	c #474747",
"6.	c #262626",
"7.	c #737373",
"8.	c #E2E2E2",
"9.	c #4C4C4C",
"0.	c #B8B8B8",
"a.	c #F7F7F7",
"b.	c #999999",
"c.	c #929292",
"d.	c #3E3E3E",
"e.	c #757575",
"f.	c #A5A5A5",
"g.	c #464646",
"h.	c #5F5F5F",
"i.	c #C1C1C1",
"j.	c #828282",
"k.	c #D7D7D7",
"l.	c #363636",
"m.	c #3A3A3A",
"n.	c #E1E1E1",
"o.	c #D0D0D0",
"p.	c #5B5B5B",
"q.	c #5A5A5A",
"r.	c #090909",
"s.	c #525252",
"t.	c #D3D3D3",
"u.	c #202020",
"v.	c #4F4F4F",
"w.	c #ABABAB",
"x.	c #7F7F7F",
"y.	c #878787",
"z.	c #383838",
"A.	c #C3C3C3",
"B.	c #616161",
"C.	c #0B0B0B",
"D.	c #A8A8A8",
"E.	c #C2C2C2",
"F.	c #1C1C1C",
"G.	c #B7B7B7",
"H.	c #2E2E2E",
"I.	c #7E7E7E",
"J.	c #B6B6B6",
"K.	c #7A7A7A",
"L.	c #242424",
"M.	c #909090",
"N.	c #545454",
"O.	c #8F8F8F",
"P.	c #2C2C2C",
"Q.	c #060606",
"R.	c #1B1B1B",
"S.	c #030303",
"T.	c #B5B5B5",
"U.	c #565656",
"V.	c #A2A2A2",
"W.	c #B9B9B9",
"X.	c #777777",
"Y.	c #E4E4E4",
"Z.	c #5E5E5E",
"`.	c #9B9B9B",
" +	c #EDEDED",
". . . . . . . . . . . . . . . . . . . . . . . . . . . . . . . . . . . . . . . . . . . . . . . . . . . . . . ",
". . . . . . . . . . . . . . . . . . . . . . . . . . . . . . . . . . . . . . . . . . . . . . . . . . . . . . ",
". . . . . . . . . . . . . . . . . . . . . . . . + @ # # # $ . . . . . . . . . . . . . . . . . . . . . . . . ",
". . . . . . . . . . . . . . . . . . . . . . . . % & * * * = . . . . . . . . . . . . . . . . . . . . . . . . ",
". . . . . . . . . . . . . . . . . . . . . . . - ; > , , , ' ) ! . . . . . . . . . . . . . . . . . . . . . . ",
". . . . . . . . . . . . . . . . . . . . . + ~ { ] ^ / / / ( _ : < . . . . . . . . . . . . . . . . . . . . . ",
". . . . . . . . . . . . . . . . . . . . . < & [ } | 1 1 1 2 3 4 5 . . . . . . . . . . . . . . . . . . . . . ",
". . . . . . . . . . . . . . . . . . . . . 6 7 , 8 9 . . . 0 , , a . . . . . . . . . . . . . . . . . . . . . ",
". . . . . . . . . . . . . . . . . . . . b c d , e 5 f f f g , , h i j . . . . . . . . . . . . . . . . . . . ",
". . . . . . . . . . . . . . . . . . . . k l m , n o p p p / , , 8 q ! . . . . . . . . . . . . . . . . . . . ",
". . . . . . . . . . . . . . . . . . . . r , , , , , , , , , , , , 7 6 . . . . . . . . . . . . . . . . . . . ",
". . . . . . . . . . . . . . . . s t t t u , , / _ _ _ _ _ _ v n , w 1 t t x y . . . . . . . . . . . . . . . ",
". . . . . . . . . . . . . . . . z A A A } , , 2 s s s s s s B C , D E A A > F . . . . . . . . . . . . . . . ",
". . . . . . . . . . . G h H H H I , , , , , , J . . . . . . 9 8 , , , , , K L H H H M . . . . . . . . . . . ",
". . . . . . . . . . N | C , , , O P P P P Q ^ R S T . . . U V W X P P P P Y W , , , Z ` 6 . . . . . . . . . ",
". . . . . . . . . .  .3 ] , , , ..+.+.+.+.G P @.#.$.. . . %.3 ] &.+.+.+.+.% * , , , @.p c . . . . . . . . . ",
". . . . . . . . *.=.-.A &.;.;.;.>.. . . . 6 7 , 8 9 . . . 0 , , a . . . . + ,.;.;.;.'.m ).M . . . . . . . . ",
". . . . . . . f !.A O & ~.. . . . . . . . 6 7 , 8 9 . . . 0 , , a . . . . . . . . . {.].^./.(._.. . . . . . ",
". . . . . . . :.] , %.j . . . . . . . . . 6 7 , 8 9 . . . 0 , , a . . . . . . . . . + <.[.K }.f . . . . . . ",
". . . . . T |.p 1.2.3.. . . . . . . . . . 6 7 , 8 9 . . . 0 , , a . . . . . . . . . . ! ,.4.^.5.B . . . . . ",
". . . . >.a 6.I 7.8.. . . . . . . . . . . 6 7 , 8 9 . . . 0 , , a . . . . . . . . . . . . ) 9.3 '.0.a.. . . ",
". . . . b., , z . . . . . . . . . . . . . 6 7 , 8 9 . . . 0 , , a . . . . . . . . . . . . . : o , d ~.. . . ",
". . . . b., , z . . . . . . . . . . . . . 6 7 , 8 9 . . . 0 , , a . . . . . . . . . . . . . : o , d ~.. . . ",
". . . . b., , z . . . . . . . . . . . . . # c.d.^.e.` +.f.g.C h.i.. . . . . . . . . . . . . : o , d ~.. . . ",
". . + % ; ] } j.. . . . . . . . . . . . . . . a , , 0 k.O , l.i . . . . . . . . . . . . . . k.m.m 4 : ! . . ",
". . @ & > ^ | n.. . . . . . . . . . . . . . . a , , 0 k.O , l.i . . . . . . . . . . . . . . ! o.p.3 _ ) . . ",
". . # * , / 1 . . . . . . . . . . . . . . . . a , , 0 k.O , l.i . . . . . . . . . . . . . . . . z , , b.. . ",
". . # * , / 1 . . . . . . . . . . . . . . . . a , , 0 k.O , l.i . . . . . . . . . . . . . . . . z , , b.. . ",
". . # * , / 1 . . . . . . . . . . . . . . . . a , , 0 k.O , l.i . . . . . . . . . . . . . . . . z , , b.. . ",
". . # * , / 1 . . . . . . . . . . . . . . . . a , , 0 k.O , l.i . . . . . . . . . . . . . . . . z , , b.. . ",
". . # * , / 1 . . . . . . . . . . . . . . . . a , , 0 k.O , l.i . . . . . . . . . . . . . . . . z , , b.. . ",
". . # * , / 1 . . . . . . . . . . . . . . . . a , , 0 k.O , l.i . . . . . . . . . . . . . . . . z , , b.. . ",
". . $ k q.r.s.M . . . . . . . . . . . . . . . t. .u._ q.^ v.w._.. . . . . . . . . . . . . . i x.-.[ { - . . ",
". . . . b., , z . . . . . . . . . . . . . . . . i l., , , y.. . . . . . . . . . . . . . . . : o , d ~.. . . ",
". . . . b., , z . . . . . . . . . . . . . . . . i l., , , y.. . . . . . . . . . . . . . . . : o , d ~.. . . ",
". . . . b., , z . . . . . . . . . . . . . . . . i l., , , y.. . . . . . . . . . . . . . . . : o , d ~.. . . ",
". . . . F 9.W ).0.y . . . . . . . . . . . . . . i l., , , y.. . . . . . . . . . . . . . . 3.2.1.p |.T . . . ",
". . . . . ~.Q K o o.+ . . . . . . . . . . . . . i z.K , ] { . . . . . . . . . . . . . . j %., ] :.. . . . . ",
". . . . . @ A.B.C.P D.. . . . . . . . . . . . . a.E.2 F.a >.. . . . . . . . . . . . . ~.& O A !.f . . . . . ",
". . . . . . . G.Z ^ ' B 6 . . . . . . . . . . . . . y.O k.. . . . . . . . . . . . . - &.A -.=.*.. . . . . . ",
". . . . . . . . f p , H.: +.+.+.@ . . . . . . # +.+.I.6.9 +.b j . . . . . . _.+.+.+.y., , =.. . . . . . . . ",
". . . . . . . . f p , m z.P P P J.. . . . . . ) P P [ ( l.P g % . . . . . j K.P P P L., , =.. . . . . . . . ",
". . . . . . . . f p , , , , , , '.M.M.M.M.M.M.N., , , , , , A %.M.M.M.M.M.O.P., , , , , , =.. . . . . . . . ",
". . . . . . . . f p , Q.R.A A A m , , , , , , 3 A A A A A A 1.S., , , , , , / A A A ^ , , =.. . . . . . . . ",
". . . . . . . . f p , O T.t t t )., , , , , , U.t t t t t t V./ , , , , , ] O.t t t z , , =.. . . . . . . . ",
". . . . . . . . f p , _ s . . . M =.=.=.=.=.=.k . . . . . . G ; =.=.=.=.=.I.k.. . . M., , =.. . . . . . . . ",
". . . . . . . . f p , #.W.: : : : : : : : : : : : : : : : : : : : : : : : : : : : : X., , =.. . . . . . . . ",
". . . . . . . . f p , @.A o o o o o o o o o o o o o o o o o o o o o o o o o o o o o } , , =.. . . . . . . . ",
". . . . . . . . f p , , , , , , , , , , , , , , , , , , , , , , , , , , , , , , , , , , , =.. . . . . . . . ",
". . . . . . . . Y.Z.d d d d d d d d d d d d d d d d d d d d d d d d d d d d d d d d d d d `.. . . . . . . . ",
". . . . . . . . $  +~.~.~.~.~.~.~.~.~.~.~.~.~.~.~.~.~.~.~.~.~.~.~.~.~.~.~.~.~.~.~.~.~.~.~._.. . . . . . . . ",
". . . . . . . . . . . . . . . . . . . . . . . . . . . . . . . . . . . . . . . . . . . . . . . . . . . . . . ",
". . . . . . . . . . . . . . . . . . . . . . . . . . . . . . . . . . . . . . . . . . . . . . . . . . . . . . ",
". . . . . . . . . . . . . . . . . . . . . . . . . . . . . . . . . . . . . . . . . . . . . . . . . . . . . . "};
