/* XPM */
static char * wn_xpm[] = {
"54 54 166 2",
"  	c None",
". 	c #FFFFFF",
"+ 	c #FEFEFE",
"@ 	c #F9F9F9",
"# 	c #FCFCFC",
"$ 	c #E2E2E2",
"% 	c #666666",
"& 	c #A9A9A9",
"* 	c #D7D7D7",
"= 	c #282828",
"- 	c #515151",
"; 	c #AFAFAF",
"> 	c #F5F5F5",
", 	c #C5C5C5",
"' 	c #252525",
") 	c #000000",
"! 	c #323232",
"~ 	c #D2D2D2",
"{ 	c #F6F6F6",
"] 	c #A2A2A2",
"^ 	c #090909",
"/ 	c #0D0D0D",
"( 	c #353535",
"_ 	c #ADADAD",
": 	c #CFCFCF",
"< 	c #8B8B8B",
"[ 	c #4A4A4A",
"} 	c #121212",
"| 	c #616161",
"1 	c #747474",
"2 	c #5B5B5B",
"3 	c #0C0C0C",
"4 	c #AAAAAA",
"5 	c #FAFAFA",
"6 	c #F2F2F2",
"7 	c #DCDCDC",
"8 	c #808080",
"9 	c #111111",
"0 	c #464646",
"a 	c #D0D0D0",
"b 	c #3A3A3A",
"c 	c #0F0F0F",
"d 	c #3B3B3B",
"e 	c #D1D1D1",
"f 	c #B3B3B3",
"g 	c #2D2D2D",
"h 	c #1A1A1A",
"i 	c #636363",
"j 	c #D9D9D9",
"k 	c #F8F8F8",
"l 	c #585858",
"m 	c #2B2B2B",
"n 	c #A7A7A7",
"o 	c #505050",
"p 	c #363636",
"q 	c #828282",
"r 	c #BDBDBD",
"s 	c #B6B6B6",
"t 	c #5F5F5F",
"u 	c #060606",
"v 	c #F0F0F0",
"w 	c #CECECE",
"x 	c #434343",
"y 	c #878787",
"z 	c #C8C8C8",
"A 	c #BABABA",
"B 	c #212121",
"C 	c #0A0A0A",
"D 	c #E0E0E0",
"E 	c #EDEDED",
"F 	c #F7F7F7",
"G 	c #A6A6A6",
"H 	c #4D4D4D",
"I 	c #010101",
"J 	c #B8B8B8",
"K 	c #EFEFEF",
"L 	c #C3C3C3",
"M 	c #494949",
"N 	c #131313",
"O 	c #3F3F3F",
"P 	c #C1C1C1",
"Q 	c #BFBFBF",
"R 	c #DDDDDD",
"S 	c #202020",
"T 	c #ECECEC",
"U 	c #F4F4F4",
"V 	c #818181",
"W 	c #626262",
"X 	c #BCBCBC",
"Y 	c #F3F3F3",
"Z 	c #444444",
"` 	c #787878",
" .	c #7D7D7D",
"..	c #4E4E4E",
"+.	c #FDFDFD",
"@.	c #959595",
"#.	c #EAEAEA",
"$.	c #232323",
"%.	c #E5E5E5",
"&.	c #929292",
"*.	c #E8E8E8",
"=.	c #C2C2C2",
"-.	c #383838",
";.	c #171717",
">.	c #4B4B4B",
",.	c #D4D4D4",
"'.	c #989898",
").	c #424242",
"!.	c #6F6F6F",
"~.	c #C4C4C4",
"{.	c #E1E1E1",
"].	c #8E8E8E",
"^.	c #5D5D5D",
"/.	c #737373",
"(.	c #C9C9C9",
"_.	c #9E9E9E",
":.	c #070707",
"<.	c #6D6D6D",
"[.	c #A1A1A1",
"}.	c #0E0E0E",
"|.	c #767676",
"1.	c #161616",
"2.	c #B9B9B9",
"3.	c #262626",
"4.	c #141414",
"5.	c #1E1E1E",
"6.	c #030303",
"7.	c #D5D5D5",
"8.	c #040404",
"9.	c #EEEEEE",
"0.	c #9C9C9C",
"a.	c #222222",
"b.	c #7E7E7E",
"c.	c #ABABAB",
"d.	c #999999",
"e.	c #686868",
"f.	c #313131",
"g.	c #3E3E3E",
"h.	c #DBDBDB",
"i.	c #4F4F4F",
"j.	c #5A5A5A",
"k.	c #0B0B0B",
"l.	c #CDCDCD",
"m.	c #404040",
"n.	c #E6E6E6",
"o.	c #535353",
"p.	c #525252",
"q.	c #B4B4B4",
"r.	c #D6D6D6",
"s.	c #333333",
"t.	c #393939",
"u.	c #919191",
"v.	c #909090",
"w.	c #898989",
"x.	c #272727",
"y.	c #575757",
"z.	c #868686",
"A.	c #020202",
"B.	c #565656",
"C.	c #7C7C7C",
"D.	c #DADADA",
"E.	c #676767",
"F.	c #292929",
"G.	c #1F1F1F",
"H.	c #E4E4E4",
"I.	c #5E5E5E",
". . . . . . . . . . . . . . . . . . . . . . . . . . . . . . . . . . . . . . . . . . . . . . . . . . . . . . ",
". . . . . . . . . . . . . . . . . . . . . . . . . . . . . . . . . . . . . . . . . . . . . . . . . . . . . . ",
". . . . . . . . . . . . . . . . . . . . . . . . . . . + @ # . . . . . . . . . . . . . . . . . . . . . . . . ",
". . . . . . . . . . . . . . . . . . . . . . . . . . . $ % & . . . . . . . . . . . . . . . . . . . . . . . . ",
". . . . . . . . . . . . . . . . . . . . . . . . . . . * = - ; > . . . . . . . . . . . . . . . . . . . . . . ",
". . . . . . . . . . . . . . . . . . . . . . . . . . > , ' ) ! ~ { . . . . . . . . . . . . . . . . . . . . . ",
". . . . . . . . . . . . . . . . . . . . . . . . . . ] ! ^ ) / ( _ . . . . . . . . . . . . . . . . . . . . . ",
". . . . . . . . . . . . . . . . . . . . . . . : < < [ } | 1 2 3 - 4 5 . . . . . . . . . . . . . . . . . . . ",
". . . . . . . . . . . . . . . . . . . . 6 7 7 8 ) ) 9 0 7 . a b c d e 6 . . . . . . . . . . . . . . . . . . ",
". . . . . . . . . . . . . . . . . . . . f g g h ) ) i j k . > * l 3 m f . . . . . . . . . . . . . . . . . . ",
". . . . . . . . . . . . . . . . . . . n o ) ) p q q r . . . . . s t u o n . . . . . . . . . . . . . . . . . ",
". . . . . . . . . . . . . . . . . v w x } ! ! y . . . . . . . . . z d } x w v . . . . . . . . . . . . . . . ",
". . . . . . . . . . . . . . . . . A B C - D D E . . . . . . . . . F $ - C B A . . . . . . . . . . . . . . . ",
". . . . . . . . . . . . . . . . G H I | J . . . . . . . . . . . . . . J | I H G . . . . . . . . . . . . . . ",
". . . . . . . . . . . . . . K L M N O P . # a Q Q Q R . . . . . . . . . P O N M L K . . . . . . . . . . . . ",
". . . . . . . . . . . . . . L S u M T 5 . U - 9 9 9 V . . . . . . . . . 5 T M u S L . . . . . . . . . . . . ",
". . . . . . . . . . . . . G M u W X + . . Y Z ) ) ) ` . . . . . . . . . . + X W u M G . . . . . . . . . . . ",
". . . . . . . . . . . v A H N M X . . . . F  .......] . . . . . . . . . . . . X M N H A v . . . . . . . . . ",
". . . . . . . . . . . w B I O T + . . . . . +.+.+.+.+ . . . . . . . . . . . . + T O I B w . . . . . . . . . ",
". . . . . . . . . . n x C | P 5 . . . . . . . . . . . . . . . . . . . . . . . . 5 P | C x n . . . . . . . . ",
". . . . . . . . 6 f o } - J . . . . . . . . . . . . . . . . . . . . . . . . . . . . J - } o f 6 . . . . . . ",
". . . . . . . 5 e m u d $ . . . . . . . . . . . . . . . . . . . . . . . . . . . . . . D ! ) g 7 . . . . . . ",
". . . . . . . 4 d 3 t z F . . . . . . . . . . . . . . . . . . . . . . . . . . . . . . D ! ) g 7 . . . . . . ",
". . . . . { _ - c l s . . . . . . . . . j @.@.P . . . . . . . . . . . . . . . . . . . D ! ) g 7 . . . . . . ",
". . . . . #.d ) $.~ . . . . . . . F %.%.&.) ) t *.@ . . . . . . . . . . . . . . . . . D ! ) g 7 . . . . . . ",
". . . . . #.d ) $.~ . . . . . . . =.-.p $.) ) ;.>.,.. . . . . . . . . . . . . . . . . D ! ) g 7 . . . . . . ",
". . . . . U '.).N !.~.. . . {.].y ^.I ) m /.S ) h (.. . . . . . . . . . . . . . . . . D ! ) g 7 . . . . . . ",
". . . . . . . _.$.:.<.* * * [.}.) 3 = = |.> W ;.1.& #.. . . . . . . . . . . . . . . . D ! ) g 7 . . . . . . ",
". . . . . . . E 2.3.4.= = = 5.6.) ).7.* %.+.$  .8.S ].. . . . . . . . . . . . . . . . D ! ) g 7 . . . . . . ",
". . . . . . . . 9.0.).) ) ) a.b.y c.+ . . . . @.) ) ` . . . . . . . . . . . . . . . . D ! ) g 7 . . . . . . ",
". . . . . . . . . . d.p p p e.6 . . . . . . . c.f.3 t e { . . . . . . . . . . . . . . D ! ) g 7 . . . . . . ",
". . . . . . . . . . 6 %.%.%.T +.. . . . . . . U w f.3 g.h.. . . . . . . . . . . . . . D ! ) g 7 . . . . . . ",
". . . . . . . . . . . . . . . . . . . . . . . . U c.i.9 j.2.. . . . . . . . . . . . . D ! ) g 7 . . . . . . ",
". . . . . . . . . . . . . . . . . . . . . . . . . . n b k.W (.k . . . . . . . . . . . D ! ) g 7 . . . . . . ",
". . . . . . . . . . . . . . . . . . . . . . . . . . @ l.3.u m.n.. . . . . . . . . . . D ! ) g 7 . . . . . . ",
". . . . . . . . . . . . . . . . . . . . . . . . . . . * = ) p %.. . . . . . . . . . . D ! ) g 7 . . . . . . ",
". . . . . . . . . . . . . . . . . . . . . . . . . . . * = ) p %.. . . . . . . . . . . D ! ) g 7 . . . . . . ",
". . . . . . . . . . . . . . . . . . . . . . . . . . + 7.= I -.%.. . . . . . . . . . . D ! ) g 7 . . . . . . ",
". . . . . . . . . . . . . . . . . . . . . . . . . . c.).3 ^.=.F . . . . . . . . . . . D ! ) g 7 . . . . . . ",
". . . . . . . . . . . . . . . . . . . . . . . . > f o.c p.q.. . . . . . . . . . . . . D ! ) g 7 . . . . . . ",
". . . . . . . . . . . . . . . . . . . . . + Y 9.r.s.) = * . . . . . . . . . . . . . . D ! ) g 7 . . . . . . ",
". . . . . . . . . . . . . . . . . . . . . { /.m.t.}.) = * . . . . . . . . . . . . . . D ! ) g 7 . . . . . . ",
". . . . . . . . . . . . . . . . . R u.v.v.w.x.) k.y.!.z.*.. . . . . . . . . . . . . . D ! ) g 7 . . . . . . ",
". . . . . . . . . . . . . 9.D D D 0.A.) ) ) ) / p : . . . . . . . . . . . . . . . . . D ! ) g 7 . . . . . . ",
". . . . . . . . . . . . . < ! ! ! a.) ) ) ) ) B.~ U . . . . . . . . . . . . . . . . . D ! ) g 7 . . . . . . ",
". . . . . . . . . . Q q q t.) ) ) 3.C. . . . .f . . . . . . . . . . . . . . . . . . . D ! ) g 7 . . . . . . ",
". . . . . . . . @ D.E.) ) ) ) ) ) m.a ~ ~ ~ ~ ~ ~ ~ ~ ~ ~ ~ ~ ~ ~ ~ ~ ~ ~ ~ ~ ~ ~ ~ ~ 2.F.) g 7 . . . . . . ",
". . . . . . . . {.[ 9 ) ) ) ) ) ) k.$.$.$.$.$.$.$.$.$.$.$.$.$.$.$.$.$.$.$.$.$.$.$.$.$.G.:.) g 7 . . . . . . ",
". . . . . . . . 7 g ) ) ) ) ) ) ) ) ) ) ) ) ) ) ) ) ) ) ) ) ) ) ) ) ) ) ) ) ) ) ) ) ) ) ) ) g 7 . . . . . . ",
". . . . . . . . H.I.d d d d d d d d d d d d d d d d d d d d d d d d d d d d d d d d d d d d I.H.. . . . . . ",
". . . . . . . . # E #.#.#.#.#.#.#.#.#.#.#.#.#.#.#.#.#.#.#.#.#.#.#.#.#.#.#.#.#.#.#.#.#.#.#.#.E # . . . . . . ",
". . . . . . . . . . . . . . . . . . . . . . . . . . . . . . . . . . . . . . . . . . . . . . . . . . . . . . ",
". . . . . . . . . . . . . . . . . . . . . . . . . . . . . . . . . . . . . . . . . . . . . . . . . . . . . . ",
". . . . . . . . . . . . . . . . . . . . . . . . . . . . . . . . . . . . . . . . . . . . . . . . . . . . . . "};
