/* XPM */
static char * wp_xpm[] = {
"54 54 148 2",
"  	c None",
". 	c #FFFFFF",
"+ 	c #FDFDFD",
"@ 	c #EEEEEE",
"# 	c #EAEAEA",
"$ 	c #F5F5F5",
"% 	c #EBEBEB",
"& 	c #656565",
"* 	c #3B3B3B",
"= 	c #A2A2A2",
"- 	c #CFCFCF",
"; 	c #7D7D7D",
"> 	c #1E1E1E",
", 	c #000000",
"' 	c #4A4A4A",
") 	c #A4A4A4",
"! 	c #F3F3F3",
"~ 	c #E5E5E5",
"{ 	c #808080",
"] 	c #040404",
"^ 	c #1C1C1C",
"/ 	c #232323",
"( 	c #111111",
"_ 	c #2F2F2F",
": 	c #C5C5C5",
"< 	c #F0F0F0",
"[ 	c #1A1A1A",
"} 	c #151515",
"| 	c #A5A5A5",
"1 	c #D2D2D2",
"2 	c #636363",
"3 	c #0A0A0A",
"4 	c #282828",
"5 	c #A7A7A7",
"6 	c #444444",
"7 	c #C9C9C9",
"8 	c #787878",
"9 	c #959595",
"0 	c #0B0B0B",
"a 	c #575757",
"b 	c #6F6F6F",
"c 	c #343434",
"d 	c #C6C6C6",
"e 	c #5C5C5C",
"f 	c #424242",
"g 	c #9E9E9E",
"h 	c #101010",
"i 	c #383838",
"j 	c #8B8B8B",
"k 	c #F8F8F8",
"l 	c #CACACA",
"m 	c #717171",
"n 	c #393939",
"o 	c #989898",
"p 	c #D9D9D9",
"q 	c #606060",
"r 	c #202020",
"s 	c #303030",
"t 	c #A9A9A9",
"u 	c #E3E3E3",
"v 	c #545454",
"w 	c #020202",
"x 	c #0C0C0C",
"y 	c #B9B9B9",
"z 	c #FEFEFE",
"A 	c #696969",
"B 	c #010101",
"C 	c #1B1B1B",
"D 	c #3E3E3E",
"E 	c #B0B0B0",
"F 	c #E9E9E9",
"G 	c #7E7E7E",
"H 	c #080808",
"I 	c #353535",
"J 	c #8A8A8A",
"K 	c #B1B1B1",
"L 	c #BBBBBB",
"M 	c #535353",
"N 	c #BDBDBD",
"O 	c #2A2A2A",
"P 	c #0D0D0D",
"Q 	c #4E4E4E",
"R 	c #F4F4F4",
"S 	c #E8E8E8",
"T 	c #9D9D9D",
"U 	c #6E6E6E",
"V 	c #D7D7D7",
"W 	c #464646",
"X 	c #0E0E0E",
"Y 	c #323232",
"Z 	c #828282",
"` 	c #1D1D1D",
" .	c #898989",
"..	c #E4E4E4",
"+.	c #AEAEAE",
"@.	c #565656",
"#.	c #060606",
"$.	c #585858",
"%.	c #242424",
"&.	c #D4D4D4",
"*.	c #363636",
"=.	c #BFBFBF",
"-.	c #DADADA",
";.	c #070707",
">.	c #191919",
",.	c #646464",
"'.	c #A3A3A3",
").	c #6D6D6D",
"!.	c #222222",
"~.	c #6C6C6C",
"{.	c #474747",
"].	c #888888",
"^.	c #CDCDCD",
"/.	c #4D4D4D",
"(.	c #2E2E2E",
"_.	c #D5D5D5",
":.	c #C2C2C2",
"<.	c #F1F1F1",
"[.	c #F7F7F7",
"}.	c #FCFCFC",
"|.	c #686868",
"1.	c #454545",
"2.	c #E1E1E1",
"3.	c #A1A1A1",
"4.	c #676767",
"5.	c #D6D6D6",
"6.	c #9F9F9F",
"7.	c #505050",
"8.	c #DDDDDD",
"9.	c #2C2C2C",
"0.	c #A6A6A6",
"a.	c #050505",
"b.	c #3A3A3A",
"c.	c #9B9B9B",
"d.	c #1F1F1F",
"e.	c #404040",
"f.	c #747474",
"g.	c #3F3F3F",
"h.	c #939393",
"i.	c #F6F6F6",
"j.	c #C8C8C8",
"k.	c #909090",
"l.	c #777777",
"m.	c #141414",
"n.	c #212121",
"o.	c #090909",
"p.	c #ECECEC",
"q.	c #FBFBFB",
". . . . . . . . . . . . . . . . . . . . . . . . . . . . . . . . . . . . . . . . . . . . . . . . . . . . . . ",
". . . . . . . . . . . . . . . . . . . . . . . . . . . . . . . . . . . . . . . . . . . . . . . . . . . . . . ",
". . . . . . . . . . . . . . . . . . . . . . . . . . . . . . . . . . . . . . . . . . . . . . . . . . . . . . ",
". . . . . . . . . . . . . . . . . . . . . . . . . . . . . . . . . . . . . . . . . . . . . . . . . . . . . . ",
". . . . . . . . . . . . . . . . . . . . . . . . . . . . . . . . . . . . . . . . . . . . . . . . . . . . . . ",
". . . . . . . . . . . . . . . . . . . . . . . . + @ # # # $ . . . . . . . . . . . . . . . . . . . . . . . . ",
". . . . . . . . . . . . . . . . . . . . . . . . % & * * * = . . . . . . . . . . . . . . . . . . . . . . . . ",
". . . . . . . . . . . . . . . . . . . . . . . - ; > , , , ' ) ! . . . . . . . . . . . . . . . . . . . . . . ",
". . . . . . . . . . . . . . . . . . . . . + ~ { ] ^ / / / ( _ : < . . . . . . . . . . . . . . . . . . . . . ",
". . . . . . . . . . . . . . . . . . . . . $ & [ } | 1 1 1 2 3 4 5 . . . . . . . . . . . . . . . . . . . . . ",
". . . . . . . . . . . . . . . . . . . . . ! 6 , [ 7 . . . 8 , , 9 . . . . . . . . . . . . . . . . . . . . . ",
". . . . . . . . . . . . . . . . . . . . . ! 6 , [ 7 . . . 8 , , 9 . . . . . . . . . . . . . . . . . . . . . ",
". . . . . . . . . . . . . . . . . . . . . ! 6 , [ 7 . . . 8 , , 9 . . . . . . . . . . . . . . . . . . . . . ",
". . . . . . . . . . . . . . . . . . . . . ! 6 , 0 a b b b c , , 9 . . . . . . . . . . . . . . . . . . . . . ",
". . . . . . . . . . . . . . . . . . . . . ! 6 , , , , , , , , , 9 . . . . . . . . . . . . . . . . . . . . . ",
". . . . . . . . . . . . . . . . . . . . . ! 6 , , , , , , , , , 9 . . . . . . . . . . . . . . . . . . . . . ",
". . . . . . . . . . . . . . . . . . . . d e [ f g g g g g g ; h i j k . . . . . . . . . . . . . . . . . . . ",
". . . . . . . . . . . . . . . . . . . l m ] n o . . . . . . p q r s t u . . . . . . . . . . . . . . . . . . ",
". . . . . . . . . . . . . . . . . . . v w x y z . . . . . . z + A B w ) . . . . . . . . . . . . . . . . . . ",
". . . . . . . . . . . . . . . . . l v C D E F . . . . . . . . . - G H I J . . . . . . . . . . . . . . . . . ",
". . . . . . . . . . . . . . . . . K w , e . . . . . . . . . . . . L x , M . . . . . . . . . . . . . . . . . ",
". . . . . . . . . . . . . . . . . K w , e . . . . . . . . . . . . L x , M . . . . . . . . . . . . . . . . . ",
". . . . . . . . . . . . . . . . . K w , e . . . . . . . . . . . . L x , M . . . . . . . . . . . . . . . . . ",
". . . . . . . . . . . . . . . . . K w , e . . . . . . . . . . . . L x , M . . . . . . . . . . . . . . . . . ",
". . . . . . . . . . . . . . . . . K w , e . . . . . . . . . . . . L x , M . . . . . . . . . . . . . . . . . ",
". . . . . . . . . . . . . . . . . K w , e . . . . . . . . . . . . L x , M . . . . . . . . . . . . . . . . . ",
". . . . . . . . . . . . . . . . . K w , e . . . . . . . . . . . . L x , M . . . . . . . . . . . . . . . . . ",
". . . . . . . . . . . . . . . . . N O P Q p R . . . . . . . . . S T 3 [ U . . . . . . . . . . . . . . . . . ",
". . . . . . . . . . . . . . . . . ! V W X Y : . . . . . . . . . Z ` w  .... . . . . . . . . . . . . . . . . ",
". . . . . . . . . . . . . . . . . . . +.@.#.$.8 8 8 8 8 8 8 8 8 Y %.{ &.. . . . . . . . . . . . . . . . . . ",
". . . . . . . . . . . . . . . . . @ 7 7 { , , , , , , , , , , , , *.=.7 -.. . . . . . . . . . . . . . . . . ",
". . . . . . . . . . . . . . . . . y ^ [ ( , , , , , , , , , , , , ;.>.[ ,.. . . . . . . . . . . . . . . . . ",
". . . . . . . . . . . . . . . . '.' B , *.9 9 9 9 9 9 9 9 9 9 9 9 ).;., !.~.1 . . . . . . . . . . . . . . . ",
". . . . . . . . . . . . . . @ =.{.} 6 6 ].. . . . . . . . . . . . ^./.6 (.w Z _.. . . . . . . . . . . . . . ",
". . . . . . . . . . . . . . :.^ ] ' <.! [.. . . . . . . . . . . . }.R ! ) , H |.. . . . . . . . . . . . . . ",
". . . . . . . . . . . . . '.1.#.& =.z . . . . . . . . . . . . . . . . . 2.3.Y / 4.5.. . . . . . . . . . . . ",
". . . . . . . . . . . . . b , , g . . . . . . . . . . . . . . . . . . . . + Q , ( =.. . . . . . . . . . . . ",
". . . . . . . . . . . . + U B w 6.. . . . . . . . . . . . . . . . . . . . + 7.B h N z . . . . . . . . . . . ",
". . . . . . . . . . . 8.2 !.9.0.2.. . . . . . . . . . . . . . . . . . . . z 7 U a.b.c.. . . . . . . . . . . ",
". . . . . . . . . . . ^.d., e.@ . . . . . . . . . . . . . . . . . . . . . . . g , , b . . . . . . . . . . . ",
". . . . . . . . . . . ^.d., e.@ . . . . . . . . . . . . . . . . . . . . . . . g , , b . . . . . . . . . . . ",
". . . . . . . . . . . ^.d., e.@ . . . . . . . . . . . . . . . . . . . . . . . g , , b . . . . . . . . . . . ",
". . . . . . . . . . d f.( g.h.i.. . . . . . . . . . . . . . . . . . . . . . . j.|.^ g.T F . . . . . . . . . ",
". . . . . . . . . . ; , , k.. . . . . . . . . . . . . . . . . . . . . . . . . . @ e., d.^.. . . . . . . . . ",
". . . . . . . . . . ; , , k.. . . . . . . . . . . . . . . . . . . . . . . . . . @ e., d.^.. . . . . . . . . ",
". . . . . . . . . . ; , , k.. . . . . . . . . . . . . . . . . . . . . . . . . . @ e., d.^.. . . . . . . . . ",
". . . . . . . . . . ; , , l.1 1 1 1 1 1 1 1 1 1 1 1 1 1 1 1 1 1 1 1 1 1 1 1 1 1 : I , d.^.. . . . . . . . . ",
". . . . . . . . . . ; , , m./ / / / / / / / / / / / / / / / / / / / / / / / / / n.o., d.^.. . . . . . . . . ",
". . . . . . . . . . ; , , , , , , , , , , , , , , , , , , , , , , , , , , , , , , , , d.^.. . . . . . . . . ",
". . . . . . . . . . c.* * * * * * * * * * * * * * * * * * * * * * * * * * * * * * * * M p . . . . . . . . . ",
". . . . . . . . . . R # # # # # # # # # # # # # # # # # # # # # # # # # # # # # # # # p.q.. . . . . . . . . ",
". . . . . . . . . . . . . . . . . . . . . . . . . . . . . . . . . . . . . . . . . . . . . . . . . . . . . . ",
". . . . . . . . . . . . . . . . . . . . . . . . . . . . . . . . . . . . . . . . . . . . . . . . . . . . . . ",
". . . . . . . . . . . . . . . . . . . . . . . . . . . . . . . . . . . . . . . . . . . . . . . . . . . . . . "};
