/* XPM */
static char * wq_xpm[] = {
"54 54 206 2",
"  	c None",
". 	c #FFFFFF",
"+ 	c #FCFCFC",
"@ 	c #F9F9F9",
"# 	c #FEFEFE",
"$ 	c #A9A9A9",
"% 	c #666666",
"& 	c #E2E2E2",
"* 	c #878787",
"= 	c #282828",
"- 	c #D7D7D7",
"; 	c #FBFBFB",
"> 	c #E3E3E3",
", 	c #747474",
"' 	c #232323",
") 	c #B9B9B9",
"! 	c #EEEEEE",
"~ 	c #EAEAEA",
"{ 	c #5A5A5A",
"] 	c #181818",
"^ 	c #070707",
"/ 	c #262626",
"( 	c #9C9C9C",
"_ 	c #E5E5E5",
": 	c #363636",
"< 	c #000000",
"[ 	c #F3F3F3",
"} 	c #D1D1D1",
"| 	c #ECECEC",
"1 	c #171717",
"2 	c #2A2A2A",
"3 	c #080808",
"4 	c #DDDDDD",
"5 	c #E0E0E0",
"6 	c #C7C7C7",
"7 	c #2D2D2D",
"8 	c #AAAAAA",
"9 	c #6A6A6A",
"0 	c #BDBDBD",
"a 	c #FDFDFD",
"b 	c #636363",
"c 	c #BFBFBF",
"d 	c #111111",
"e 	c #9E9E9E",
"f 	c #C3C3C3",
"g 	c #646464",
"h 	c #787878",
"i 	c #3B3B3B",
"j 	c #8E8E8E",
"k 	c #F0F0F0",
"l 	c #4E4E4E",
"m 	c #616161",
"n 	c #DBDBDB",
"o 	c #8F8F8F",
"p 	c #0C0C0C",
"q 	c #777777",
"r 	c #D3D3D3",
"s 	c #959595",
"t 	c #3A3A3A",
"u 	c #494949",
"v 	c #EFEFEF",
"w 	c #010101",
"x 	c #0A0A0A",
"y 	c #595959",
"z 	c #B2B2B2",
"A 	c #101010",
"B 	c #050505",
"C 	c #060606",
"D 	c #202020",
"E 	c #6F6F6F",
"F 	c #ACACAC",
"G 	c #B8B8B8",
"H 	c #EDEDED",
"I 	c #131313",
"J 	c #1E1E1E",
"K 	c #303030",
"L 	c #0B0B0B",
"M 	c #858585",
"N 	c #D4D4D4",
"O 	c #9A9A9A",
"P 	c #C5C5C5",
"Q 	c #3F3F3F",
"R 	c #606060",
"S 	c #020202",
"T 	c #AFAFAF",
"U 	c #9D9D9D",
"V 	c #707070",
"W 	c #757575",
"X 	c #3D3D3D",
"Y 	c #999999",
"Z 	c #404040",
"` 	c #A1A1A1",
" .	c #676767",
"..	c #242424",
"+.	c #191919",
"@.	c #525252",
"#.	c #F7F7F7",
"$.	c #818181",
"%.	c #121212",
"&.	c #888888",
"*.	c #F2F2F2",
"=.	c #515151",
"-.	c #4A4A4A",
";.	c #B7B7B7",
">.	c #919191",
",.	c #383838",
"'.	c #B1B1B1",
").	c #E1E1E1",
"!.	c #6B6B6B",
"~.	c #252525",
"{.	c #B0B0B0",
"].	c #CDCDCD",
"^.	c #1F1F1F",
"/.	c #444444",
"(.	c #1A1A1A",
"_.	c #C9C9C9",
":.	c #5C5C5C",
"<.	c #D2D2D2",
"[.	c #868686",
"}.	c #686868",
"|.	c #A4A4A4",
"1.	c #F4F4F4",
"2.	c #585858",
"3.	c #040404",
"4.	c #0E0E0E",
"5.	c #B5B5B5",
"6.	c #828282",
"7.	c #D5D5D5",
"8.	c #2E2E2E",
"9.	c #4D4D4D",
"0.	c #3C3C3C",
"a.	c #BBBBBB",
"b.	c #151515",
"c.	c #7B7B7B",
"d.	c #CBCBCB",
"e.	c #535353",
"f.	c #4C4C4C",
"g.	c #161616",
"h.	c #1C1C1C",
"i.	c #0F0F0F",
"j.	c #A8A8A8",
"k.	c #0D0D0D",
"l.	c #5B5B5B",
"m.	c #ADADAD",
"n.	c #2C2C2C",
"o.	c #717171",
"p.	c #D6D6D6",
"q.	c #BCBCBC",
"r.	c #323232",
"s.	c #626262",
"t.	c #A5A5A5",
"u.	c #6E6E6E",
"v.	c #C4C4C4",
"w.	c #7A7A7A",
"x.	c #272727",
"y.	c #313131",
"z.	c #808080",
"A.	c #5F5F5F",
"B.	c #4F4F4F",
"C.	c #F6F6F6",
"D.	c #7F7F7F",
"E.	c #424242",
"F.	c #989898",
"G.	c #7D7D7D",
"H.	c #A3A3A3",
"I.	c #909090",
"J.	c #8B8B8B",
"K.	c #C2C2C2",
"L.	c #F1F1F1",
"M.	c #E8E8E8",
"N.	c #656565",
"O.	c #E4E4E4",
"P.	c #F8F8F8",
"Q.	c #2F2F2F",
"R.	c #EBEBEB",
"S.	c #474747",
"T.	c #DCDCDC",
"U.	c #030303",
"V.	c #929292",
"W.	c #575757",
"X.	c #1D1D1D",
"Y.	c #414141",
"Z.	c #9B9B9B",
"`.	c #8C8C8C",
" +	c #7C7C7C",
".+	c #505050",
"++	c #B3B3B3",
"@+	c #6C6C6C",
"#+	c #464646",
"$+	c #ABABAB",
"%+	c #C6C6C6",
"&+	c #F5F5F5",
"*+	c #333333",
"=+	c #7E7E7E",
"-+	c #B6B6B6",
";+	c #393939",
">+	c #222222",
",+	c #545454",
"'+	c #1B1B1B",
")+	c #565656",
"!+	c #A2A2A2",
"~+	c #AEAEAE",
"{+	c #8A8A8A",
"]+	c #292929",
"^+	c #141414",
"/+	c #5E5E5E",
". . . . . . . . . . . . . . . . . . . . . . . . . . . . . . . . . . . . . . . . . . . . . . . . . . . . . . ",
". . . . . . . . . . . . . . . . . . . . . . . . . . . . . . . . . . . . . . . . . . . . . . . . . . . . . . ",
". . . . . . . . . . . . . . . . . . . . . . . . . . + @ # . . . . . . . . . . . . . . . . . . . . . . . . . ",
". . . . . . . . . . . . . . . . . . . . . . . . . . $ % & . . . . . . . . . . . . . . . . . . . . . . . . . ",
". . . . . . . . . . . . . . . . . . . . . . . . . . * = - . . . . . . . . . . . . . . . . . . . . . . . . . ",
". . . . . . . . . . . . . . . . . . . . . . . . . . * = - . . . . . . . . . . . . . . . . . . . . . . . . . ",
". . . . . . . . . . . . . . . . . . . . . . . . . . * = - . . . . . . . . . . . . . . . . . . . . . . . . . ",
". . . . . . . . . . . . . . . . . . . . . . . . . . * = - . . . . . . . . . . . . . . . . . . . . . . . . . ",
". . . . . . . . . . . . . . . . . . . . . . . . ; > , ' ) ! . . . . . . . . . . . . . . . . . . . . . . . . ",
". . . . . . . . . . . . . . . . . . . . . . . . ~ { ] ^ / ( . . . . . . . . . . . . . . . . . . . . . . . . ",
". . . . . . . . . . . . . . . . . . . . . . . . _ : < < < * . . . . . . . . . . . . . . . . . . . . . . . . ",
". . . . . . . . . . . . . . [ } | . . . . . . . _ : 1 2 3 * . . . . . . . . 4 5 . . . . . . . . . . . . . . ",
". . . . . . . . . . . . . . 6 7 8 . . . . . . . _ : 9 0 ' * . . . . . . . a b , . . . . . . . . . . . . . . ",
". . . . . . . . . . . . . . c d e . . . . . . f g ] h - = i j k . . . . . a l m . . . . . . . . . . . . . . ",
". . . . . . . . . . . . . n o p q r # . . . . s < < h - = < : _ . . . . ~ 0 t u f v . . . . . . . . . . . . ",
". . . . . . . . . . . . . h p w x y a . . . . s < < h - = < : _ . . . . z A B C D f . . . . . . . . . . . . ",
". . . . . . . . . . . . . E < < < l a . . . . s < < h - = < : _ . . . . F < < < d c . . . . . . . . . . . . ",
". . . . 5 G H . . . . . . E I u J l a . . . . s < < h - = < : _ . . . . F w : K L M r . . . . . N f @ . . . ",
". . . . O 1 P . . . . . . E Q | R l a . . . . s < < h - = < : _ . . . . F S T U < S V . . . . . W X ~ . . . ",
". . . . Y ^ Z ` . . . 4  ...Z ! m +.@.6 . #.$.K %.&.r *.) =.%.-.;.. . >.,.S '.e < < E . . . ).!.~.i ~ . . . ",
". . . . Y < < -.{.v . ].^.< Z ! m < < F . [ /.< (._.. . . h < < s . . :.< S '.e < < E . . <.[.1 < i ~ . . . ",
". . . . Y < < < ' <.. ].^.< Z ! }.3 < |.#.[ /.< (._.. . . h < < s + 1.2.3.4.5.e < < E . . 6.< < < i ~ . . . ",
". . . . Y < < < ' <.. ].^.< Z ! 7.6.S 8.&.[ /.< (._.. . . h < < s ].9.+.0.a.~ e < < E . . 6.< < < i ~ . . . ",
". . . . Y < < < b.c.d.].^.< Z ! . '.S < :.[ /.< (._.. . . h < < s a.p < e.. . e < < E *.$ f.< < < i ~ . . . ",
". . . . Y < < p g.B W G h.i.e.k . '.S < :.[ /.< (._.. . . h < < s a.p < e.. . j.] C g _.7 k.b.3.< i ~ . . . ",
". . . . Y < < l.m.' h.n.^ o.p.; . '.S < :.[ /.< (._.. . . h < < s a.p < e.. . ~ q.r.] K L s.t.h.< i ~ . . . ",
". . . . _.u.h.X M c.i 1 9 v.. . . p.w.x.y.z...r.[.& . . . G A.p B.s.C 9.|.. . . C.O /.4.m D.E I E.F.1.. . . ",
". . . . . ~ i < ' <.G.r.5 . . . . . . e.< < < 9 . . . . . . _.(.< < < H.. . . . . . I.^.].6.< < J.. . . . . ",
". . . . . ~ i < ' <.G.r.5 . . . . . . e.< < < 9 . . . . . . _.(.< < < H.. . . . . . I.^.].6.< < J.. . . . . ",
". . . . . ~ i < ' <.K.e L.. . . . . . e.< < < 9 . . . . . . _.(.< < < H.. . . . . . d.s M.6.< < J.. . . . . ",
". . . . . ! N.J h.t.O.. . . . . . . . e.< < < 9 . . . . . . _.(.< < < H.. . . . . . . P.r % x Q.|.. . . . . ",
". . . . . a R.G.3.b.o . . . . . . . . e.< < < 9 . . . . . . _.(.< < < H.. . . . . . . > S.k.= P [ . . . . . ",
". . . . . . . J.< < 6.. . . . . . . . e.< < < 9 . . . . . . _.(.< < < H.. . . . . . . 5 r.< 7 T.. . . . . . ",
". . . . . . . J.< < 6.. . . . . . . . $.n.U.r.V.. . . . . . - W.X.%.Y.q.. . . . . . . 5 r.< 7 T.. . . . . . ",
". . . . . . . J.< < 6.. . . . . . . . #.Z.L z P.. . . . . . + 1.N.Y.M.; . . . . . . . 5 r.< 7 T.. . . . . . ",
". . . . . . . 7.`.X.Q. +R.. . . . . . . H.p a.. . . . . . . . . 9 /.[ . . . . . . . G =.%..+++*.. . . . . . ",
". . . . . . . . T.7 < r.5 . . . . . . . H.p a.. . . . . . . . . 9 /.[ . . . . . . . I.< < G.. . . . . . . . ",
". . . . . . . . T.7 < r.5 . . . . . . . |.4.a.. . . # a . . . . @+#+[ . . . . . . . I.< < G.. . . . . . . . ",
". . . . . . . . T.7 < r.5 . . . . . . . > 5.~ . . . $+9 > . . . <.%+; . . . . . . . I.< < G.. . . . . . . . ",
". . . . . . . . T.7 < r.5 . . . . . . . . . . . &+++e.+.M } . . . . . . . . . . . . I.< < G.. . . . . . . . ",
". . . . . . . . T.7 < 8.<.! ! ! @ . . . . . . P.p.*+< < < =+*.a . . . . . . 1.! ! ! * < < G.. . . . . . . . ",
". . . . . . . . T.7 < p ,.Z Z Z -+. . . . . . T ;+4.< < < >+}.| . . . . . a w.Z Z Z ..< < G.. . . . . . . . ",
". . . . . . . . T.7 < < < < < < y I.I.I.I.I.I.,+< < < < < < ^.$.I.I.I.I.I.o n.< < < < < < G.. . . . . . . . ",
". . . . . . . . T.7 < C '+^.^.^.p < < < < < < k.^.^.^.^.^.^.] U.< < < < < < b.^.^.^.d < < G.. . . . . . . . ",
". . . . . . . . T.7 < = 5.].].].l < < < < < < )+].].].].].].!+b.< < < < < S o ].].]., < < G.. . . . . . . . ",
". . . . . . . . T.7 < r.5 . . . ~+G.G.G.G.G.G.++. . . . . . > {+G.G.G.G.G.=+- . . . I.< < G.. . . . . . . . ",
". . . . . . . . T.7 < ]+) <.<.<.<.<.<.<.<.<.<.<.<.<.<.<.<.<.<.<.<.<.<.<.<.<.<.<.<.<.q < < G.. . . . . . . . ",
". . . . . . . . T.7 < ^ ^.' ' ' ' ' ' ' ' ' ' ' ' ' ' ' ' ' ' ' ' ' ' ' ' ' ' ' ' ' ^+< < G.. . . . . . . . ",
". . . . . . . . T.7 < < < < < < < < < < < < < < < < < < < < < < < < < < < < < < < < < < < G.. . . . . . . . ",
". . . . . . . . O./+i i i i i i i i i i i i i i i i i i i i i i i i i i i i i i i i i i i Z.. . . . . . . . ",
". . . . . . . . + H ~ ~ ~ ~ ~ ~ ~ ~ ~ ~ ~ ~ ~ ~ ~ ~ ~ ~ ~ ~ ~ ~ ~ ~ ~ ~ ~ ~ ~ ~ ~ ~ ~ ~ ~ 1.. . . . . . . . ",
". . . . . . . . . . . . . . . . . . . . . . . . . . . . . . . . . . . . . . . . . . . . . . . . . . . . . . ",
". . . . . . . . . . . . . . . . . . . . . . . . . . . . . . . . . . . . . . . . . . . . . . . . . . . . . . ",
". . . . . . . . . . . . . . . . . . . . . . . . . . . . . . . . . . . . . . . . . . . . . . . . . . . . . . "};
