/* XPM */
static char * wr_xpm[] = {
"54 54 94 2",
"  	c None",
". 	c #FFFFFF",
"+ 	c #C4C4C4",
"@ 	c #8B8B8B",
"# 	c #DADADA",
"$ 	c #FAFAFA",
"% 	c #AAAAAA",
"& 	c #CFCFCF",
"* 	c #B5B5B5",
"= 	c #999999",
"- 	c #E9E9E9",
"; 	c #7D7D7D",
"> 	c #000000",
", 	c #ACACAC",
"' 	c #F3F3F3",
") 	c #444444",
"! 	c #959595",
"~ 	c #5C5C5C",
"{ 	c #1F1F1F",
"] 	c #CDCDCD",
"^ 	c #494949",
"/ 	c #828282",
"( 	c #313131",
"_ 	c #555555",
": 	c #777777",
"< 	c #222222",
"[ 	c #0D0D0D",
"} 	c #666666",
"| 	c #3D3D3D",
"1 	c #2D2D2D",
"2 	c #010101",
"3 	c #5A5A5A",
"4 	c #797979",
"5 	c #202020",
"6 	c #909090",
"7 	c #808080",
"8 	c #323232",
"9 	c #101010",
"0 	c #1A1A1A",
"a 	c #C9C9C9",
"b 	c #787878",
"c 	c #020202",
"d 	c #B1B1B1",
"e 	c #EEEEEE",
"f 	c #404040",
"g 	c #ECECEC",
"h 	c #E0E0E0",
"i 	c #B4B4B4",
"j 	c #9B9B9B",
"k 	c #E7E7E7",
"l 	c #919191",
"m 	c #DDDDDD",
"n 	c #373737",
"o 	c #616161",
"p 	c #5B5B5B",
"q 	c #181818",
"r 	c #A5A5A5",
"s 	c #4E4E4E",
"t 	c #050505",
"u 	c #3A3A3A",
"v 	c #636363",
"w 	c #FEFEFE",
"x 	c #FDFDFD",
"y 	c #6E6E6E",
"z 	c #BDBDBD",
"A 	c #6F6F6F",
"B 	c #6B6B6B",
"C 	c #ABABAB",
"D 	c #353535",
"E 	c #111111",
"F 	c #BFBFBF",
"G 	c #9E9E9E",
"H 	c #A6A6A6",
"I 	c #D7D7D7",
"J 	c #F1F1F1",
"K 	c #F7F7F7",
"L 	c #E4E4E4",
"M 	c #DCDCDC",
"N 	c #060606",
"O 	c #1B1B1B",
"P 	c #282828",
"Q 	c #747474",
"R 	c #292929",
"S 	c #B9B9B9",
"T 	c #D2D2D2",
"U 	c #070707",
"V 	c #232323",
"W 	c #141414",
"X 	c #5E5E5E",
"Y 	c #3B3B3B",
"Z 	c #FCFCFC",
"` 	c #EDEDED",
" .	c #EAEAEA",
"..	c #F4F4F4",
". . . . . . . . . . . . . . . . . . . . . . . . . . . . . . . . . . . . . . . . . . . . . . . . . . . . . . ",
". . . . . . . . . . . . . . . . . . . . . . . . . . . . . . . . . . . . . . . . . . . . . . . . . . . . . . ",
". . . . . . . . . . . . . . . . . . . . . . . . . . . . . . . . . . . . . . . . . . . . . . . . . . . . . . ",
". . . . . . . . . . . . . . . . . . . . . . . . . . . . . . . . . . . . . . . . . . . . . . . . . . . . . . ",
". . . . . . . . . . . . . . . . . . . . . . . . . . . . . . . . . . . . . . . . . . . . . . . . . . . . . . ",
". . . . . . . . . . . . . . . . . . . . . . . . . . . . . . . . . . . . . . . . . . . . . . . . . . . . . . ",
". . . . . . . . . . . . . . . . . . . . . . . . . . . . . . . . . . . . . . . . . . . . . . . . . . . . . . ",
". . . . . . . . . . + @ @ @ @ @ @ @ @ # . $ % @ @ @ @ @ @ @ @ @ & . . * @ @ @ @ @ @ @ = - . . . . . . . . . ",
". . . . . . . . . . ; > > > > > > > > , . ' ) > > > > > > > > > ! . . ~ > > > > > > > { ] . . . . . . . . . ",
". . . . . . . . . . ; > > > > > > > > , . ' ) > > > > > > > > > ! . . ~ > > > > > > > { ] . . . . . . . . . ",
". . . . . . . . . . ; > > ^ / / ( > > _ ; : < > [ } / / / | > > ^ ; ; 1 > 2 3 / 4 5 > { ] . . . . . . . . . ",
". . . . . . . . . . ; > > 6 . . 7 8 8 9 > > > > 0 a . . . b > > > > > > > c d . e f > { ] . . . . . . . . . ",
". . . . . . . . . . ; > > 6 . . g h h ^ > > > > 0 a . . . b > > > > > > > c d . e f > { ] . . . . . . . . . ",
". . . . . . . . . . ; > > 6 . . . . . i 6 6 6 6 j k . . . + 6 6 6 6 6 6 6 l m . e f > { ] . . . . . . . . . ",
". . . . . . . . . . ; > > 6 . . . . . . . . . . . . . . . . . . . . . . . . . . e f > { ] . . . . . . . . . ",
". . . . . . . . . . ; > > 6 . . . . . . . . . . . . . . . . . . . . . . . . . . e f > { ] . . . . . . . . . ",
". . . . . . . . . . ; > > n o o o o o o o o o o o o o o o o o o o o o o o o o o p q > { ] . . . . . . . . . ",
". . . . . . . . . . r s s < > > > > > > > > > > > > > > > > > > > > > > > > > > t u s v m . . . . . . . . . ",
". . . . . . . . . . w x x y > > > > > > > > > > > > > > > > > > > > > > > > > > 9 z x x . . . . . . . . . . ",
". . . . . . . . . . . . . A > > B , , , , , , , , , , , , , , , , , , , , C D > E F . . . . . . . . . . . . ",
". . . . . . . . . . . . . A > > G . . . . . . . . . . . . . . . . . . . . x s > E F . . . . . . . . . . . . ",
". . . . . . . . . . . . . A > > G . . . . . . . . . . . . . . . . . . . . x s > E F . . . . . . . . . . . . ",
". . . . . . . . . . . . . A > > G . . . . . . . . . . . . . . . . . . . . x s > E F . . . . . . . . . . . . ",
". . . . . . . . . . . . . A > > G . . . . . . . . . . . . . . . . . . . . x s > E F . . . . . . . . . . . . ",
". . . . . . . . . . . . . A > > G . . . . . . . . . . . . . . . . . . . . x s > E F . . . . . . . . . . . . ",
". . . . . . . . . . . . . A > > G . . . . . . . . . . . . . . . . . . . . x s > E F . . . . . . . . . . . . ",
". . . . . . . . . . . . . A > > G . . . . . . . . . . . . . . . . . . . . x s > E F . . . . . . . . . . . . ",
". . . . . . . . . . . . . A > > G . . . . . . . . . . . . . . . . . . . . x s > E F . . . . . . . . . . . . ",
". . . . . . . . . . . . . A > > G . . . . . . . . . . . . . . . . . . . . x s > E F . . . . . . . . . . . . ",
". . . . . . . . . . . . . A > > G . . . . . . . . . . . . . . . . . . . . x s > E F . . . . . . . . . . . . ",
". . . . . . . . . . . . . A > > G . . . . . . . . . . . . . . . . . . . . x s > E F . . . . . . . . . . . . ",
". . . . . . . . . . . . . A > > G . . . . . . . . . . . . . . . . . . . . x s > E F . . . . . . . . . . . . ",
". . . . . . . . . . . . . A > > G . . . . . . . . . . . . . . . . . . . . x s > E F . . . . . . . . . . . . ",
". . . . . . . . . . . . . A > > G . . . . . . . . . . . . . . . . . . . . x s > E F . . . . . . . . . . . . ",
". . . . . . . . . . . . . A > > G . . . . . . . . . . . . . . . . . . . . x s > E F . . . . . . . . . . . . ",
". . . . . . . . . . . . . A > > G . . . . . . . . . . . . . . . . . . . . x s > E F . . . . . . . . . . . . ",
". . . . . . . . . . . . . A > > B , , , , , , , , , , , , , , , , , , , , C D > E F . . . . . . . . . . . . ",
". . . . . . . . . . . . . A > > > > > > > > > > > > > > > > > > > > > > > > > > E F . . . . . . . . . . . . ",
". . . . . . . . . . . . . A > > > > > > > > > > > > > > > > > > > > > > > > > > E F . . . . . . . . . . . . ",
". . . . . . . . . . . . . H o o o o o o o o o o o o o o o o o o o o o o o o o o B I . . . . . . . . . . . . ",
". . . . . . . . x J e e e e e e e e e e e e e e e e e e e e e e e e e e e e e e e e e e e K . . . . . . . . ",
". . . . . . . . L o f f f f f f f f f f f f f f f f f f f f f f f f f f f f f f f f f f f G . . . . . . . . ",
". . . . . . . . M 1 > > > > > > > > > > > > > > > > > > > > > > > > > > > > > > > > > > > ; . . . . . . . . ",
". . . . . . . . M 1 > N O { { { { { { { { { { { { { { { { { { { { { { { { { { { { { E > > ; . . . . . . . . ",
". . . . . . . . M 1 > P * ] ] ] ] ] ] ] ] ] ] ] ] ] ] ] ] ] ] ] ] ] ] ] ] ] ] ] ] ] Q > > ; . . . . . . . . ",
". . . . . . . . M 1 > 8 h . . . . . . . . . . . . . . . . . . . . . . . . . . . . . 6 > > ; . . . . . . . . ",
". . . . . . . . M 1 > R S T T T T T T T T T T T T T T T T T T T T T T T T T T T T T : > > ; . . . . . . . . ",
". . . . . . . . M 1 > U { V V V V V V V V V V V V V V V V V V V V V V V V V V V V V W > > ; . . . . . . . . ",
". . . . . . . . M 1 > > > > > > > > > > > > > > > > > > > > > > > > > > > > > > > > > > > ; . . . . . . . . ",
". . . . . . . . L X Y Y Y Y Y Y Y Y Y Y Y Y Y Y Y Y Y Y Y Y Y Y Y Y Y Y Y Y Y Y Y Y Y Y Y j . . . . . . . . ",
". . . . . . . . Z `  . . . . . . . . . . . . . . . . . . . . . . . . . . . . . . . . . . .... . . . . . . . ",
". . . . . . . . . . . . . . . . . . . . . . . . . . . . . . . . . . . . . . . . . . . . . . . . . . . . . . ",
". . . . . . . . . . . . . . . . . . . . . . . . . . . . . . . . . . . . . . . . . . . . . . . . . . . . . . ",
". . . . . . . . . . . . . . . . . . . . . . . . . . . . . . . . . . . . . . . . . . . . . . . . . . . . . . "};
