/* XPM */
static char * deska_xpm[] = {
"32 32 18 1",
" 	c None",
".	c #840A07",
"+	c #FFFFFF",
"@	c #000000",
"#	c #EBEBEB",
"$	c #F1F1F1",
"%	c #FEFEFE",
"&	c #F3F3F3",
"*	c #8D8D8D",
"=	c #FCFCFC",
"-	c #B7B7B7",
";	c #F7F7F7",
">	c #C6C6C6",
",	c #0D0D0D",
"'	c #020202",
")	c #141414",
"!	c #080808",
"~	c #0A0A0A",
"....++++++++........++++        ",
"....++++++++........++++        ",
"....++++++++........++++        ",
"....++++++++........++++        ",
"++++........++++++++....        ",
"++++........++++++++....        ",
"++++........++++++++....        ",
"++++........++++++++....        ",
"++++........++++++++....        ",
"++++........++++++++....        ",
"++++........++++++++...@@       ",
"++++........++++++++..@@@@      ",
"....++++++++........@@@#$@@     ",
"....++++++++.......@@@%+++@@    ",
"....++++++++......@@+%%+%+&@@   ",
"....++++++++.....@@%*@@++++=@@  ",
"....++++++++....@@+%@@-+++++=@@ ",
"....++++++++...@@%++++%++++%+&@@",
"....++++++++..@@%+++++%+++++%+@@",
"....++++++++.@@+%%;@@>%+++++%+@@",
"++++........+@@+%@@@@,%++++++%@@",
"++++........++@@@'++.@@+%+++++@)",
"++++........+++@@+++..@@++%%++@)",
"++++........++++++++...@@+++++@)",
"                        @+++%+@)",
"                        @+%+++@)",
"                       @@+++++@)",
"                      @@++++++@)",
"                  @@@!@++++++%@)",
"                @@@+++%+++++++@)",
"               @@@@@@@@@@@@@@@@~",
"              @@@@@@@@@@@@@@@@@@"};
