/* XPM */
static char * mini_xpm[] = {
"16 16 4 1",
" 	c None",
".	c #FFFFFF",
"+	c #000000",
"@	c #840A07",
"...............+",
".@@.....@@@@@..+",
".@@.....@@@@@..+",
"...@@@@@.....@@+",
"...@@@@@.....@@+",
"...@@@@@.....@@+",
"...@@@@@.....@@+",
"...@@@@@.....@@+",
".@@.....@@@@@..+",
".@@.....@@@@@..+",
".@@.....@@@@@..+",
".@@.....@@@@@..+",
".@@.....@@@@@..+",
"...@@@@@.....@@+",
"...@@@@@.....@@+",
"++++++++++++++++"};
