/* XPM */
static char * fileopen_xpm[] = {
"32 32 156 2",
"  	c None",
". 	c #000000",
"+ 	c #FAA254",
"@ 	c #FEB66C",
"# 	c #FEC080",
"$ 	c #FECB97",
"% 	c #FED59C",
"& 	c #FED197",
"* 	c #FED69E",
"= 	c #FED298",
"- 	c #FECE93",
"; 	c #FECB8D",
"> 	c #FEC98C",
", 	c #FED7A0",
"' 	c #FED39A",
") 	c #FED095",
"! 	c #FECC8F",
"~ 	c #EE9A50",
"{ 	c #925E34",
"] 	c #DE924C",
"^ 	c #DDDDDC",
"/ 	c #FFFFFF",
"( 	c #FEFEFF",
"_ 	c #FAFAFA",
": 	c #F5F5F5",
"< 	c #F0F0F1",
"[ 	c #EDEDEC",
"} 	c #E8E8E8",
"| 	c #E3E3E3",
"1 	c #DFDFDF",
"2 	c #DBDBD9",
"3 	c #D5D5D5",
"4 	c #D1D1D0",
"5 	c #CCCCCC",
"6 	c #C8C8C7",
"7 	c #C3C3C2",
"8 	c #BEBEBD",
"9 	c #BCBCBD",
"0 	c #E7E7E7",
"a 	c #E5E5E5",
"b 	c #E1E1E1",
"c 	c #CACAC8",
"d 	c #C4C4C5",
"e 	c #BFBFBD",
"f 	c #B7B7B5",
"g 	c #B1B1B1",
"h 	c #ABABAA",
"i 	c #A8A8A6",
"j 	c #A1A1A1",
"k 	c #9B9B9B",
"l 	c #979795",
"m 	c #909090",
"n 	c #8A8A89",
"o 	c #858583",
"p 	c #818180",
"q 	c #797978",
"r 	c #E4E4E4",
"s 	c #E4E4E3",
"t 	c #DFDFDD",
"u 	c #D8D8D7",
"v 	c #D3D3D1",
"w 	c #CBCBCA",
"x 	c #C5C5C5",
"y 	c #C2C2C2",
"z 	c #B3B3B1",
"A 	c #A5A5A3",
"B 	c #9E9E9D",
"C 	c #989897",
"D 	c #919190",
"E 	c #868685",
"F 	c #7F7F7E",
"G 	c #787877",
"H 	c #E8E8E7",
"I 	c #E1E1E0",
"J 	c #D4D4D3",
"K 	c #CECECC",
"L 	c #C7C7C6",
"M 	c #C2C2C1",
"N 	c #BABAB9",
"O 	c #B5B5B4",
"P 	c #AEAEAD",
"Q 	c #A0A09F",
"R 	c #999999",
"S 	c #949492",
"T 	c #878787",
"U 	c #7B7B78",
"V 	c #686865",
"W 	c #F8F8F8",
"X 	c #DCDCDC",
"Y 	c #E3E3E1",
"Z 	c #E9E9E8",
"` 	c #CCCCCB",
" .	c #C6C6C5",
"..	c #B8B8B7",
"+.	c #939391",
"@.	c #D5D5D4",
"#.	c #D0D0CF",
"$.	c #C4C4C3",
"%.	c #BDBDBC",
"&.	c #B1B1B0",
"*.	c #AAAAA9",
"=.	c #A3A3A2",
"-.	c #929290",
";.	c #818181",
">.	c #EDEDED",
",.	c #D9D9D8",
"'.	c #E7E7E5",
").	c #E5E5E4",
"!.	c #E0E0DF",
"~.	c #D7D7D5",
"{.	c #AFAFAE",
"].	c #A1A1A0",
"^.	c #8B8B8A",
"/.	c #DCDCDB",
"(.	c #BCBCBA",
"_.	c #9F9F9E",
":.	c #949493",
"<.	c #D6D6D5",
"[.	c #DCDCDA",
"}.	c #B4B4B3",
"|.	c #999998",
"1.	c #8D8D8C",
"2.	c #B9B9B8",
"3.	c #C4C4C4",
"4.	c #CDCDCC",
"5.	c #D7D7D7",
"6.	c #BFBFBE",
"7.	c #B0B0AF",
"8.	c #959594",
"9.	c #D3D3D3",
"0.	c #BCBCB9",
"a.	c #C1C1BE",
"b.	c #A6A6A4",
"c.	c #9B9B9A",
"d.	c #929291",
"e.	c #A9A9A8",
"f.	c #B6B6B5",
"g.	c #B5B5B5",
"h.	c #9D9D9D",
"i.	c #9A9A99",
"j.	c #C7C7C7",
"k.	c #A2A2A1",
"l.	c #A1A19F",
"m.	c #9B9B9D",
"n.	c #979797",
"o.	c #C1C1C1",
"p.	c #8A8A8A",
"q.	c #90908E",
"r.	c #91918F",
"s.	c #888888",
"t.	c #878786",
"u.	c #838383",
"v.	c #808080",
"w.	c #7D7D7C",
"x.	c #7B7B7A",
"y.	c #787876",
"                                                                ",
"                          . . . . . . . .           .           ",
"                      . . . . . . . . . . . .     . .           ",
"                  . . . . .         . . . . . . . . .           ",
"                . . .                     . . . . . .           ",
"              . .                           . . . . .           ",
"                                          . . . . . .           ",
"                                        . . . . . . .           ",
"      . . . . . .                                               ",
"    . + @ @ @ @ + .                                             ",
"  . @ # $ % & $ # @ .                                           ",
". + # $ * = - ; > # + . . . . . . . . . . . . .                 ",
". @ $ , ' ) ! # @ @ @ @ @ @ @ @ @ @ @ @ @ @ @ @ .               ",
". @ ; % & # @ + + ~ ~ ~ ~ ~ ~ ~ ~ ~ ~ ~ ~ ~ ~ ~ .               ",
". @ * = $ @ + { . . . . . . . . . . . . . . . . . . . . . . . . ",
". @ ' ) # @ ] . ^ / / / / ( _ : < [ } | 1 2 3 4 5 6 7 8 9 9 9 . ",
". @ & $ @ + { . / 0 a b ^ 3 4 c d e f g h i j k l m n o p p q . ",
". @ - # @ ] . / ^ 0 r r s t u v w x y e f z h A B C D E F G .   ",
". @ $ @ + { . a u | H [ [ r I 2 J K L M N O P i Q R S T U V .   ",
". @ # @ ] . W J X Y H [ H Z Y t u v `  .e ..z h A B +.T G .     ",
". @ @ + { . a K u b H H s s I 2 @.#.c $.%.f &.*.=.B -.;.V .     ",
". @ @ ] . >.6 #.,.I '.).Y !.2 ~.4 `  .M N O {.i ].l ^.G .       ",
". @ + { . a 7 #.2 I I t /.,.@.4 K L 7 (.f &.h A _.:.;.V .       ",
". @ ] . b 8 6 4 <.[.,.u @.J #.` L $.%...}.P i ].|.1.U .         ",
". + { . a 2.3.4.4 @.v 4 #.K c  .7 %.2.}.{.*.=.B l ;.V .         ",
". ] . 5.&.2.6.$.c c c w 6 L $.M (...}.7.*.A Q 8.^.G .           ",
". { . 9.h O 2.0.6.$.$.$.7 a.%.N f }.{.*.b.Q c.d.;.V .           ",
". . ` e.h {.z }.O f.2.2...g.}.&.P *.b.].h.i.D ;.G .             ",
". . j.k.l.k.=.b.i i i b.A =.]._.m.i.n.S S S ;.U V .             ",
". o.1.p.n 1.q.r.r.r.r.r.q.1.n s.t.u.v.w.x.y.y.V .               ",
". . . . . . . . . . . . . . . . . . . . . . . . .               ",
"                                                                "};
