/* XPM */
static char * gamenew_xpm[] = {
"32 32 3 1",
" 	c None",
".	c #840A07",
"+	c #FFFFFF",
".....+++++++++++...........+++++",
".....+++++++++++...........+++++",
".....+++++++++++...........+++++",
".....+++++++++++...........+++++",
".....+++++++++++...........+++++",
".....+++++++++++...........+++++",
"+++++...........+++++++++++.....",
"+++++...........+++++++++++.....",
"+++++...........+++++++++++.....",
"+++++...........+++++++++++.....",
"+++++...........+++++++++++.....",
"+++++...........+++++++++++.....",
"+++++...........+++++++++++.....",
"+++++...........+++++++++++.....",
"+++++...........+++++++++++.....",
"+++++...........+++++++++++.....",
"+++++...........+++++++++++.....",
".....+++++++++++...........+++++",
".....+++++++++++...........+++++",
".....+++++++++++...........+++++",
".....+++++++++++...........+++++",
".....+++++++++++...........+++++",
".....+++++++++++...........+++++",
".....+++++++++++...........+++++",
".....+++++++++++...........+++++",
".....+++++++++++...........+++++",
".....+++++++++++...........+++++",
"+++++...........+++++++++++.....",
"+++++...........+++++++++++.....",
"+++++...........+++++++++++.....",
"+++++...........+++++++++++.....",
"+++++...........+++++++++++....."};
