/* XPM */
static char * gamesave_xpm[] = {
"32 32 79 1",
" 	c None",
".	c #000000",
"+	c #C1C1C1",
"@	c #515151",
"#	c #9B9B9B",
"$	c #FFFFFF",
"%	c #2B2B2B",
"&	c #868686",
"*	c #818181",
"=	c #828282",
"-	c #7E7E7E",
";	c #797979",
">	c #C3C3C3",
",	c #7A7A7A",
"'	c #757575",
")	c #8D8D8D",
"!	c #727272",
"~	c #6D6D6D",
"{	c #6F6F6F",
"]	c #6A6A6A",
"^	c #656565",
"/	c #676767",
"(	c #626262",
"_	c #C0C0C0",
":	c #BBBBBB",
"<	c #B6B6B6",
"[	c #5F5F5F",
"}	c #5A5A5A",
"|	c #BDBDBD",
"1	c #B8B8B8",
"2	c #B3B3B3",
"3	c #AEAEAE",
"4	c #A9A9A9",
"5	c #A4A4A4",
"6	c #A0A0A0",
"7	c #5C5C5C",
"8	c #575757",
"9	c #535353",
"0	c #B5B5B5",
"a	c #B0B0B0",
"b	c #ABABAB",
"c	c #A6A6A6",
"d	c #A1A1A1",
"e	c #9C9C9C",
"f	c #979797",
"g	c #939393",
"h	c #8E8E8E",
"i	c #898989",
"j	c #545454",
"k	c #B1B1B1",
"l	c #ACACAC",
"m	c #A8A8A8",
"n	c #A3A3A3",
"o	c #9E9E9E",
"p	c #999999",
"q	c #949494",
"r	c #8F8F8F",
"s	c #8A8A8A",
"t	c #7C7C7C",
"u	c #777777",
"v	c #8C8C8C",
"w	c #878787",
"x	c #747474",
"y	c #606060",
"z	c #717171",
"A	c #6C6C6C",
"B	c #5D5D5D",
"C	c #585858",
"D	c #E6E6E6",
"E	c #555555",
"F	c #969696",
"G	c #919191",
"H	c #353535",
"I	c #D4D4D4",
"J	c #838383",
"K	c #AFAFAF",
"L	c #7F7F7F",
"M	c #7B7B7B",
"N	c #737373",
"         ...                    ",
"        .+++...                 ",
"        .++@###...              ",
"        .++@######...           ",
"       .+++@$$$######...        ",
"       .++@$$$$$$$######...     ",
"       .++@$$$$$$$$$$######%..  ",
"      .+++@$$$$$$$$$$$$$###%&*. ",
"      .++@$$$$$$$$$$$$$$$$%=-;>.",
"      .++@$$$$$$$$$$$$$$$$%,'>).",
"     .+++@$$$$$$$$$$$$$$$$%!~>. ",
"     .++@$$$$$$$$$$$$$$$$%{]^>. ",
"     .++@$$$$$$$$$$$$$$$$%/(>). ",
"    .+_:<%%%$$$$$$$$$$$$$%[}>.  ",
"    .|123456%%%$$$$$$$$$%789>.  ",
"    .0abcdefghi%%%$$$$$$%j9>).  ",
"   .klmnopqrs&*tu!%%%$$$%99>.   ",
"   .456...vw=-;x{]^y7%%%999>.   ",
"   .de.$$$...'zA/(BCj99999>).   ",
"  .opq.$DD$$$...[}E9999999>.    ",
"  .FGv.$DDDDD$$$.H.9999999>.    ",
"  .hi.$DDDDDDDDDDHw...999>).    ",
" .s&*.$IIIIIIIIIHwwww.999>.     ",
" .=-;.$+++++++++HJJJJ.999>.     ",
"  ...$KKKKKKKKKKHLLL.999>).     ",
"     ...oooooooHMMMM.999>.      ",
"        ...ooooHuuuu.999>.      ",
"           ...oHNNN.999>).      ",
"              ...{{.999>.       ",
"                 ...999>.       ",
"                    .....       ",
"                                "};
