/* XPM */
static char * modified_xpm[] = {
"16 16 62 1",
" 	c None",
".	c #404040",
"+	c #606060",
"@	c #000000",
"#	c #898989",
"$	c #9B9B9B",
"%	c #747474",
"&	c #4E4E4E",
"*	c #C1C1C1",
"=	c #989898",
"-	c #FFFFFF",
";	c #E6E6E6",
">	c #CDCDCD",
",	c #A8A8A8",
"'	c #636363",
")	c #424242",
"!	c #545454",
"~	c #8C8C8C",
"{	c #CACACA",
"]	c #5E5E5E",
"^	c #969696",
"/	c #BFBFBF",
"(	c #959595",
"_	c #858585",
":	c #5C5C5C",
"<	c #B2B2B2",
"[	c #9E9E9E",
"}	c #787878",
"|	c #707070",
"1	c #AAAAAA",
"2	c #7B7B7B",
"3	c #8E8E8E",
"4	c #848484",
"5	c #7A7A7A",
"6	c #474747",
"7	c #6C6C6C",
"8	c #494949",
"9	c #8B8B8B",
"0	c #353535",
"a	c #9A9A9A",
"b	c #808080",
"c	c #F2F2F2",
"d	c #5D5D5D",
"e	c #373737",
"f	c #575757",
"g	c #535353",
"h	c #6A6A6A",
"i	c #B9B9B9",
"j	c #ECECEC",
"k	c #363636",
"l	c #2A2A2A",
"m	c #6F6F6F",
"n	c #3E3E3E",
"o	c #E5E5E5",
"p	c #555555",
"q	c #585858",
"r	c #A6A6A6",
"s	c #7D7D7D",
"t	c #4F4F4F",
"u	c #757575",
"v	c #252525",
"w	c #1C1C1C",
"    .+@         ",
"    +#$%&@      ",
"   @*=-;>$%&@   ",
"   .*,----;>$') ",
"   +#--------!~!",
"  @*=-------{]^@",
"  ./~(------(+_ ",
"  :<,[]}(---)|! ",
" @12&345|67(89@ ",
" 0abcbde+fggg_  ",
" 8hi;;jc!klgm!  ",
"@4no{{{{d_)g9@  ",
" @pqrrr~hslg_   ",
"    @0thuqnm!   ",
"       @vwg9@   ",
"          @@    "};
