/* XPM */
static char * options_xpm[] = {
"16 14 5 1",
" 	c None",
".	c #000000",
"+	c #F9EDED",
"@	c #E7E7FF",
"#	c #D0CFFB",
"     ......     ",
"    .+++++..    ",
"   .++@@@##..   ",
"  .++@@#####..  ",
" .++@##..####.. ",
" .+@@#.  .###.. ",
" .+@#.    .##.. ",
" .+@#.    .##.. ",
" ..###.  .##... ",
" ..####..###... ",
"  ..#######...  ",
"   ..####....   ",
"    ........    ",
"     ......     "};
