/* XPM */
static char * play_xpm[] = {
"32 32 141 2",
"  	c None",
". 	c #2B0000",
"+ 	c #2C0000",
"@ 	c #060000",
"# 	c #340000",
"$ 	c #500000",
"% 	c #200000",
"& 	c #3A0000",
"* 	c #880000",
"= 	c #550000",
"- 	c #170000",
"; 	c #3D0000",
"> 	c #A20000",
", 	c #A40000",
"' 	c #600000",
") 	c #0B0000",
"! 	c #A70000",
"~ 	c #E20000",
"{ 	c #C80000",
"] 	c #5C0000",
"^ 	c #0F0000",
"/ 	c #A60000",
"( 	c #D40000",
"_ 	c #DD0000",
": 	c #CB0000",
"< 	c #000000",
"[ 	c #1F0000",
"} 	c #1B0000",
"| 	c #180000",
"1 	c #1E0000",
"2 	c #1C0000",
"3 	c #330000",
"4 	c #BB0000",
"5 	c #CD0000",
"6 	c #FE0000",
"7 	c #C20000",
"8 	c #5A0000",
"9 	c #0E0000",
"0 	c #6C0000",
"a 	c #B40000",
"b 	c #AD0000",
"c 	c #B00000",
"d 	c #E60000",
"e 	c #D50000",
"f 	c #EE0000",
"g 	c #FB0000",
"h 	c #FD0000",
"i 	c #FC0000",
"j 	c #ED0000",
"k 	c #CC0000",
"l 	c #820000",
"m 	c #8A0000",
"n 	c #B50000",
"o 	c #E70000",
"p 	c #F80000",
"q 	c #D30000",
"r 	c #5D0000",
"s 	c #150000",
"t 	c #D70000",
"u 	c #F00000",
"v 	c #E50000",
"w 	c #D10000",
"x 	c #C30000",
"y 	c #B30000",
"z 	c #960000",
"A 	c #6D0000",
"B 	c #740000",
"C 	c #8B0000",
"D 	c #B70000",
"E 	c #E30000",
"F 	c #F40000",
"G 	c #BF0000",
"H 	c #5F0000",
"I 	c #1D0000",
"J 	c #B90000",
"K 	c #C50000",
"L 	c #9F0000",
"M 	c #910000",
"N 	c #750000",
"O 	c #720000",
"P 	c #900000",
"Q 	c #EA0000",
"R 	c #4D0000",
"S 	c #010000",
"T 	c #D80000",
"U 	c #8E0000",
"V 	c #940000",
"W 	c #990000",
"X 	c #920000",
"Y 	c #800000",
"Z 	c #7D0000",
"` 	c #690000",
" .	c #6E0000",
"..	c #930000",
"+.	c #710000",
"@.	c #3F0000",
"#.	c #DF0000",
"$.	c #A50000",
"%.	c #680000",
"&.	c #670000",
"*.	c #6A0000",
"=.	c #790000",
"-.	c #7F0000",
";.	c #AB0000",
">.	c #6B0000",
",.	c #380000",
"'.	c #890000",
").	c #870000",
"!.	c #950000",
"~.	c #860000",
"{.	c #7C0000",
"].	c #9A0000",
"^.	c #A90000",
"/.	c #400000",
"(.	c #140000",
"_.	c #5E0000",
":.	c #510000",
"<.	c #520000",
"[.	c #560000",
"}.	c #6F0000",
"|.	c #B10000",
"1.	c #8F0000",
"2.	c #470000",
"3.	c #080000",
"4.	c #100000",
"5.	c #110000",
"6.	c #210000",
"7.	c #460000",
"8.	c #9D0000",
"9.	c #3B0000",
"0.	c #0D0000",
"a.	c #360000",
"b.	c #770000",
"c.	c #9C0000",
"d.	c #160000",
"e.	c #370000",
"f.	c #420000",
"g.	c #350000",
"h.	c #320000",
"i.	c #3E0000",
"j.	c #2E0000",
"                                                                ",
"                                                                ",
"                                                                ",
"                                                                ",
"                              .                                 ",
"                              + @                               ",
"                              # $ %                             ",
"                              & * = -                           ",
"                              ; > , ' )                         ",
"                              ; ! ~ { ] ^                       ",
"                              ; / ( _ : ] -                     ",
"          < [ } | | | | | 1 2 3 / 4 5 6 7 8 9                   ",
"          < 0 0 0 0 0 0 0 0 0 0 a b c d 6 : ] )                 ",
"          < 0 e f g h i i h j ( k l m n o p q r s               ",
"          < 0 t 5 d u f v w x y z A B C D E F G H I             ",
"          < 0 ( b J K { 4 L z M N A A O P y q Q b R S           ",
"          < 0 T , U V W X Y Z Z A `  . ...c n V +.@.S           ",
"          < 0 #.$.N %.&.` 0 +.B *.A =.-.$.;.P >.,.s             ",
"          < 0 d a '.).P !.C ~.~.l {.'.].^.z ` /.(.              ",
"          < 0 _.:.:.<.<.= [.'  .}.Y ].|.1.0 2.3.                ",
"          < | 4.^ 5.4.4.4.4.6.7.B 8.;.1.+.9.0.                  ",
"                              a.b.c.].0 9.d.                    ",
"                              ,.O Y 0 2.0.                      ",
"                              e.` >.f.3.                        ",
"                              g._.9.s                           ",
"                              h.i.-                             ",
"                              + @                               ",
"                              j.                                ",
"                                                                ",
"                                                                ",
"                                                                ",
"                                                                "};
