/* XPM */
static char * right_xpm[] = {
"32 32 212 2",
"  	c None",
". 	c #0C3652",
"+ 	c #0C3753",
"@ 	c #03090E",
"# 	c #0F4160",
"$ 	c #22617C",
"% 	c #0F2731",
"& 	c #154767",
"* 	c #549BBB",
"= 	c #2F6378",
"- 	c #05202C",
"; 	c #194968",
"> 	c #7DB0C9",
", 	c #72B6D4",
"' 	c #367088",
") 	c #050F14",
"! 	c #1A4A68",
"~ 	c #84B5CA",
"{ 	c #CEEAF6",
"] 	c #B2D2E1",
"^ 	c #28718F",
"/ 	c #03161D",
"( 	c #84B3C8",
"_ 	c #BFDDEB",
": 	c #CFE3EF",
"< 	c #B7D5E2",
"[ 	c #3A6A7E",
"} 	c #00202E",
"| 	c #000000",
"1 	c #012A46",
"2 	c #002340",
"3 	c #00203F",
"4 	c #001F3E",
"5 	c #002845",
"6 	c #002545",
"7 	c #0F405F",
"8 	c #95CADE",
"9 	c #B0D9E6",
"0 	c #FFFFFF",
"a 	c #A2CFE2",
"b 	c #38697D",
"c 	c #03141D",
"d 	c #0C91B6",
"e 	c #96C0D3",
"f 	c #6EC8DD",
"g 	c #6FCADE",
"h 	c #D9ECF2",
"i 	c #B7D5E3",
"j 	c #BCDFEE",
"k 	c #E4F3FB",
"l 	c #FDFCFF",
"m 	c #FFFDFF",
"n 	c #FFFCFF",
"o 	c #FFFEFF",
"p 	c #E6F1F9",
"q 	c #BBDEED",
"r 	c #ACD9E8",
"s 	c #1AACCB",
"t 	c #2EAFCE",
"u 	c #7ACEE1",
"v 	c #D8EFF5",
"w 	c #F9FAFD",
"x 	c #C5DAE3",
"y 	c #336D86",
"z 	c #001D2A",
"A 	c #BDE3F0",
"B 	c #ACDBE7",
"C 	c #D6EEF5",
"D 	c #E7F5FB",
"E 	c #E5F4FB",
"F 	c #D4ECF6",
"G 	c #B3DEEE",
"H 	c #9CD3E7",
"I 	c #7EC9E0",
"J 	c #3BBCD5",
"K 	c #0097BC",
"L 	c #0F9BC0",
"M 	c #2FB0CE",
"N 	c #80CEE0",
"O 	c #D0ECF3",
"P 	c #F2F6FB",
"Q 	c #9FCCE1",
"R 	c #416B7D",
"S 	c #0C242F",
"T 	c #BDDFEC",
"U 	c #7EC1D5",
"V 	c #83CFE0",
"W 	c #98D8E6",
"X 	c #9DD9E8",
"Y 	c #83D2E4",
"Z 	c #52BFD8",
"` 	c #45B6D3",
" .	c #42B1D0",
"..	c #0AA1C3",
"+.	c #0B92B9",
"@.	c #099BC1",
"#.	c #38B5D1",
"$.	c #78CDE0",
"%.	c #B5E0EC",
"&.	c #D9F2FB",
"*.	c #82BFD8",
"=.	c #1D607B",
"-.	c #020305",
";.	c #C4E1EF",
">.	c #6DB9D3",
",.	c #35B3CF",
"'.	c #43B5CF",
").	c #4EB8D0",
"!.	c #37B8D1",
"~.	c #11ACCA",
"{.	c #0FA8C9",
"].	c #1DA4C7",
"^.	c #1091B8",
"/.	c #0D8EB5",
"(.	c #0B95BD",
"_.	c #0C95BE",
":.	c #45B3D0",
"<.	c #5FD3E3",
"[.	c #53E0EA",
"}.	c #38B9D4",
"|.	c #2190B6",
"1.	c #0E516F",
"2.	c #010305",
"3.	c #C5E9F6",
"4.	c #67BFD7",
"5.	c #189ABB",
"6.	c #0D8BAE",
"7.	c #1288AA",
"8.	c #0F8CAF",
"9.	c #0D99BE",
"0.	c #0F9BC1",
"a.	c #0E8EB5",
"b.	c #0E91B9",
"c.	c #10A2C9",
"d.	c #0EACCD",
"e.	c #43CEE0",
"f.	c #49D5E4",
"g.	c #25BBD3",
"h.	c #0F8FB5",
"i.	c #064B65",
"j.	c #041C28",
"k.	c #D2F0FC",
"l.	c #7ACDE2",
"m.	c #1EB6CE",
"n.	c #1CB3C8",
"o.	c #2DB9CB",
"p.	c #2FBED2",
"q.	c #22B6CE",
"r.	c #17B4CF",
"s.	c #11B4D2",
"t.	c #12B0CD",
"u.	c #13A6CA",
"v.	c #18B6D6",
"w.	c #22CCE0",
"x.	c #39D8E6",
"y.	c #31C0D7",
"z.	c #148AAF",
"A.	c #0D5472",
"B.	c #051B27",
"C.	c #1D769C",
"D.	c #14688E",
"E.	c #14688F",
"F.	c #15688E",
"G.	c #146A90",
"H.	c #126E94",
"I.	c #136F93",
"J.	c #127FA3",
"K.	c #0F93B8",
"L.	c #0E95BD",
"M.	c #0EADCE",
"N.	c #48DFE9",
"O.	c #2BB8D2",
"P.	c #158DB2",
"Q.	c #0E5C7D",
"R.	c #030C12",
"S.	c #05202F",
"T.	c #021720",
"U.	c #021621",
"V.	c #051721",
"W.	c #051621",
"X.	c #041621",
"Y.	c #031722",
"Z.	c #04151E",
"`.	c #082C3F",
" +	c #0D5D7F",
".+	c #0A9EC0",
"++	c #2ACEE1",
"@+	c #3DD9E7",
"#+	c #1A92B8",
"$+	c #0B4D69",
"%+	c #04121A",
"&+	c #0D4564",
"*+	c #10A1BF",
"=+	c #2DCBE0",
"-+	c #36C3D8",
";+	c #051D2B",
">+	c #0F4665",
",+	c #1D94B5",
"'+	c #1DA7C9",
")+	c #178EB2",
"!+	c #114463",
"~+	c #307E9D",
"{+	c #2386AB",
"]+	c #0C5775",
"^+	c #030D12",
"/+	c #0F4363",
"(+	c #227498",
"_+	c #134B63",
":+	c #0D3F5E",
"<+	c #0B506E",
"[+	c #041F2B",
"}+	c #0D3B59",
"                                                                ",
"                                                                ",
"                                                                ",
"                                                                ",
"                              .                                 ",
"                              + @                               ",
"                              # $ %                             ",
"                              & * = -                           ",
"                              ; > , ' )                         ",
"                              ! ~ { ] ^ /                       ",
"                              ! ( _ : < [ }                     ",
"          | 1 2 3 4 4 4 4 5 6 7 ( 8 9 0 a b c                   ",
"          | d d d d d d d d d d e f g h 0 i ^ )                 ",
"          | d j k l m n n o p q r s t u v w x y z               ",
"          | d A B C D E F G H I J K L M N O P Q R S             ",
"          | d T U V W X Y Z `  ...K +.@.#.$.%.&.*.=.-.          ",
"          | d ;.>.,.'.).!.~.{.].^./.(._.:.<.[.}.|.1.2.          ",
"          | d 3.4.5.6.7.8.d 9.0.a.b.c.d.e.f.g.h.i.j.            ",
"          | d k.l.m.n.o.p.q.r.s.t.u.v.w.x.y.z.A.B.              ",
"          | d C.D.E.F.G.H.I.J.K.L.M.w.N.O.P.Q.R.                ",
"          | S.T.U.V.W.X.Y.Z.`. +.+++@+O.#+$+%+                  ",
"                              &+*+=+-+P.$+;+                    ",
"                              >+,+'+)+Q.%+                      ",
"                              !+~+{+]+^+                        ",
"                              /+(+_+j.                          ",
"                              :+<+[+                            ",
"                              + @                               ",
"                              }+                                ",
"                                                                ",
"                                                                ",
"                                                                ",
"                                                                "};
