/* XPM */
static char * wq_xpm[] = {
"37 37 3 1",
" 	c None",
".	c #000000",
"+	c #FFFFFF",
"+++++++++++++++++++++++++++++++++++++",
"+++++++++++++++++++++++++++++++++++++",
"++++++++++++++++++.++++++++++++++++++",
"++++++++++++++++++.++++++++++++++++++",
"++++++++++++++++++.++++++++++++++++++",
"++++++++++++++++++.++++++++++++++++++",
"+++++++++++++++++...+++++++++++++++++",
"+++++++++++++++++...+++++++++++++++++",
"++++++++++.++++++.+.++++++.++++++++++",
"++++++++++.+++++..+..+++++.++++++++++",
"+++++++++...++++..+..++++...+++++++++",
"+++++++++...++++..+..++++...+++++++++",
"+++.+++++.+.++++..+..++++.+..++++.+++",
"+++..+++..+..++..+++..++..+..+++..+++",
"+++...++..+..++..+++..++..+..++...+++",
"+++...++..++..+..+++..+..++..++...+++",
"+++....+..++..+..+++..+..++..+....+++",
"+++..+...+++..+..+++..+..+++...+..+++",
"++++..+.+++++...+++++...+++++.+..++++",
"++++..+.+++++...+++++...+++++.+..++++",
"++++..+++++++...+++++...+++++++..++++",
"+++++..++++++...+++++...++++++..+++++",
"+++++..++++++...+++++...++++++..+++++",
"+++++..+++++++.+++++++.+++++++..+++++",
"++++++..++++++.+++++++.++++++..++++++",
"++++++..++++++.+++++++.++++++..++++++",
"++++++..++++++++++.++++++++++..++++++",
"++++++..+++++++++...+++++++++..++++++",
"++++++.....+++++.....+++++.....++++++",
"++++++.........................++++++",
"++++++..+++.....+++++.....+++..++++++",
"++++++..+++++++++++++++++++++..++++++",
"++++++.........................++++++",
"++++++.........................++++++",
"+++++++++++++++++++++++++++++++++++++",
"+++++++++++++++++++++++++++++++++++++",
"+++++++++++++++++++++++++++++++++++++"};
