/* XPM */
static char * bk_xpm[] = {
"54 54 3 1",
" 	c None",
".	c #FFFFFF",
"+	c #000000",
"......................................................",
"......................................................",
"......................................................",
"..........................++..........................",
"..........................++..........................",
"..........................++..........................",
".......................++++++++.......................",
".......................++++++++.......................",
"..........................++..........................",
"..........................++..........................",
"..........................++..........................",
"..........................++..........................",
"..........................++..........................",
"........................++++++........................",
".......................++....++.......................",
".......................+......+.......................",
"......................++..++..++......................",
"...........++++++.....++..++..++.....++++++...........",
".........+++++++++++..++..++..++..+++++++++++.........",
".......++++......+++++++..++..+++++++......++++.......",
"......+++..........+++++..++..+++++..........+++......",
".....+++....+++++....+++......+++....+++++....+++.....",
".....++...+++++++++...+++....+++...+++++++++...++.....",
"....++...+++++++++++...+++..+++...+++++++++++...++....",
"....++...++++++++++++...++..++...++++++++++++...++....",
"....++..++++++++++++++..++++++..++++++++++++++..++....",
"....++..++++++++++++++...++++...++++++++++++++..++....",
"....++...++++++++++++++..++++..++++++++++++++...++....",
"....++...++++++++++++++...++...++++++++++++++...++....",
".....++...+++++++++++++...++...+++++++++++++...++.....",
".....+++...+++++++++++++..++..+++++++++++++...+++.....",
"......+++...++++++++++++..++..++++++++++++...+++......",
".......+++...+++++++++++..++..+++++++++++...+++.......",
"........+++...+++++................+++++...+++........",
".........+++..............................+++.........",
"..........+++.......++++++++++++++.......+++..........",
"...........++++++++++++++++++++++++++++++++...........",
"............++++++++++++++++++++++++++++++............",
"............++++++++..............++++++++............",
"............++++......................++++............",
"............+++......++++++++++++......+++............",
"............+++.++++++++++++++++++++++.+++............",
"............++++++++..............++++++++............",
"............++++......................++++............",
"............++.......++++++++++++.......++............",
"............+++..++++++++++++++++++++..+++............",
"............++++++++++++++++++++++++++++++............",
"..............++++++++++++++++++++++++++..............",
".................++++++++++++++++++++.................",
".....................++++++++++++.....................",
"......................................................",
"......................................................",
"......................................................",
"......................................................"};
